<svg width="185" height="185" viewBox="0 0 185 185" fill="none" xmlns="http://www.w3.org/2000/svg">
<circle cx="92.3714" cy="92.2282" r="91.8158" fill="#EF723B"/>
<path d="M70.6326 97.1512H57.875V85.2055H70.6326L70.6326 48.0926L105.542 48.0926C114.124 48.0926 121.006 50.3735 126.186 54.9353C131.289 59.4197 133.84 65.296 133.84 72.5639C133.84 79.9092 131.289 85.824 126.186 90.3085C121.006 94.8703 114.124 97.1512 105.542 97.1512L87.2174 97.1512V104.806H116.676V116.751H87.2174V129.277H70.6326V116.751H57.875V104.806H70.6326V97.1512ZM87.2174 62.7058V85.2055H103.338C107.591 85.2055 110.916 84.239 113.312 82.306C115.787 80.2958 117.024 77.5123 117.024 73.9556C117.024 70.3217 115.787 67.5382 113.312 65.6052C110.916 63.6723 107.591 62.7058 103.338 62.7058L87.2174 62.7058Z" fill="white"/>
</svg>
