<svg width="172" height="172" viewBox="0 0 172 172" fill="none" xmlns="http://www.w3.org/2000/svg">
<path d="M100.67 65.0454V36.5454C100.67 30.8764 98.4179 25.4396 94.4093 21.431C90.4007 17.4224 84.9639 15.1704 79.2949 15.1704L50.7949 79.2954V157.67H131.165C134.602 157.709 137.936 156.505 140.555 154.279C143.174 152.053 144.9 148.956 145.415 145.558L155.247 81.4329C155.557 79.3906 155.42 77.3053 154.844 75.3214C154.268 73.3376 153.267 71.5028 151.912 69.9439C150.556 68.3851 148.878 67.1397 146.994 66.2938C145.109 65.448 143.063 65.022 140.997 65.0454H100.67Z" fill="#EF723B"/>
<rect x="9.73438" y="74.9617" width="35.2577" height="82.8557" fill="#EF723B"/>
<circle cx="26.4818" cy="142.833" r="7.93299" fill="#F9FAFB"/>
</svg>
