<svg width="188" height="187" viewBox="0 0 188 187" fill="none" xmlns="http://www.w3.org/2000/svg">
<g clip-path="url(#clip0_2235_5283)">
<path d="M105.762 80.9688L32.1766 154.555Z" fill="#EF723B"/>
<path d="M40.118 101.15L4.07456 92.6363C0.109051 91.6996 -1.28564 86.7766 1.58701 83.8935L30.2511 55.2294C32.1766 53.3039 34.7891 52.2006 37.5264 52.1798L69.8438 51.8988" fill="#EF723B"/>
<path d="M177.985 59.2678L186.394 18.8008C188.684 7.789 178.942 -1.95304 167.93 0.336751L127.463 8.74655C115.546 11.2237 104.617 17.1251 96.0203 25.7327L62.8182 58.9243C50.1515 71.591 41.9082 88.0151 39.3062 105.74L39.1917 106.5C37.5472 117.814 41.3358 129.231 49.4125 137.319C57.4893 145.395 68.9174 149.184 80.2311 147.529L80.9909 147.415C98.716 144.823 115.14 136.569 127.807 123.902L160.998 90.7108C169.606 82.1137 175.507 71.1851 177.985 59.2678Z" fill="#EF723B"/>
<path d="M110.55 14.9186C134.603 31.3219 155.409 52.1278 171.813 76.181Z" fill="#EF723B"/>
<path d="M85.5705 146.613L94.0844 182.657C95.0211 186.622 99.9442 188.017 102.827 185.144L131.491 156.48C133.417 154.555 134.52 151.942 134.541 149.205L134.822 116.887" fill="#EF723B"/>
<path d="M37.3975 149.333L75.7453 100.029L86.0931 110.377L37.3975 149.333Z" fill="#EF723B"/>
<circle cx="131.746" cy="53.7677" r="15.2174" fill="white"/>
</g>
<defs>
<clipPath id="clip0_2235_5283">
<rect width="187" height="187" fill="white" transform="translate(0.0644531)"/>
</clipPath>
</defs>
</svg>
