<svg width="464" height="318" viewBox="0 0 464 318" fill="none" xmlns="http://www.w3.org/2000/svg">
<path fill-rule="evenodd" clip-rule="evenodd" d="M428.413 77.2957L443.566 72.9488L459.625 68.3754L463.84 67.1599L459.625 66.0268L443.566 61.4534L427.507 56.8593L425.863 56.3855V78.0167V97.1346C422.896 94.1157 419.72 91.3004 416.358 88.7087C393.175 70.4355 354.987 55.5614 303.753 48.3922V20.8896L318.927 16.5428L334.987 11.9899L339.054 10.7538L334.987 9.62076L318.927 5.04729L302.847 0.453229L301.203 0V21.6107V47.9596C295.85 47.2385 290.371 46.5999 284.701 46.0437L284.849 45.7553C273.447 44.8282 262.425 44.2308 251.677 43.9423C249.569 43.9423 247.461 43.7775 245.502 43.7363H244.448C240.401 43.6539 236.418 43.6127 232.498 43.6127H232.182C228.262 43.6127 224.279 43.6539 220.232 43.7363H219.2C217.092 43.7363 215.09 43.8599 213.025 43.9423C202.255 44.2308 191.254 44.8282 179.852 45.7553L179.979 46.0437C174.31 46.5999 168.83 47.2385 163.477 47.9596V2.63696V0L161.833 0.453229L145.774 5.04729L129.694 9.62076L125.647 10.7538L129.694 11.9899L145.774 16.6046L160.927 20.9514V48.3304C109.714 55.4996 71.4418 70.3737 48.3224 88.6469C44.9735 91.2691 41.8054 94.1045 38.8386 97.1346V59.1048V56.3855L37.1947 56.8593L21.1144 61.4534L5.05512 66.0474L0.840088 67.1805L5.05512 68.396L21.1144 72.9694L36.2885 77.3163V99.8128C28.21 108.255 22.9602 118.907 21.2409 130.344C19.1333 145.424 24.655 160.772 38.101 175.007C42.4337 179.504 47.1817 183.6 52.2845 187.244V268.392C67.3844 278.782 83.621 287.495 100.694 294.37C119.03 301.931 146.111 312.808 168.64 318L168.514 304.156V271.194C180.159 267.27 192.284 264.874 204.574 264.066C205.079 264.066 205.648 263.942 206.217 263.901C214.374 263.345 223.078 263.18 232.477 263.427C241.834 263.18 250.574 263.338 258.695 263.901C259.243 263.901 259.812 263.901 260.317 264.066C272.613 264.876 284.745 267.273 296.398 271.194V304.156L296.272 318C318.801 312.808 345.882 301.931 364.239 294.37C381.239 287.488 397.404 278.783 412.438 268.413V187.244C417.542 183.626 422.284 179.542 426.6 175.048C440.131 160.813 445.568 145.465 443.46 130.385C441.737 118.943 436.488 108.286 428.413 99.8334V77.2957ZM408.876 105.952L333.006 152.799C319.18 142.086 297.072 133.496 267.673 129.561L302.721 65.6972C349.086 72.3308 383.396 85.5979 404.008 101.852C405.757 103.253 407.359 104.592 408.876 105.952ZM209.21 61.5358C210.98 61.5358 212.751 61.371 214.563 61.371C217.198 61.2474 219.79 61.2061 222.34 61.1649C225.543 61.1649 228.662 61.1649 231.803 61.1649H232.878C236.081 61.1649 239.2 61.1649 242.34 61.1649C244.975 61.1649 247.567 61.1649 250.117 61.371C251.887 61.371 253.658 61.3709 255.47 61.5358C268.347 62.0508 280.507 62.9778 292.035 64.3375L256.945 128.387C256.573 128.298 256.191 128.25 255.807 128.242L255.997 127.872C247.778 127.357 239.917 127.151 232.372 127.233C224.827 127.315 216.903 127.357 208.704 127.872L208.873 128.242C208.496 128.248 208.121 128.297 207.756 128.387L172.645 64.3375C184.173 62.9778 196.396 62.0508 209.21 61.5358ZM161.875 65.656L196.923 129.52C167.608 133.455 145.521 142.045 131.696 152.758L55.8252 105.911C57.3215 104.551 58.9232 103.212 60.5882 101.79C81.1997 85.6598 115.447 72.3926 161.812 65.759L161.875 65.656ZM48.9336 113.265L124.214 159.742C111.99 173.503 112.033 189.593 126.596 203.787C89.3557 193.486 67.7748 179.581 52.3899 163.512C35.9302 146.145 36.5414 128.675 48.9336 113.265ZM106.3 247.894C91.1697 241.628 76.532 234.281 62.506 225.913V193.94C76.3436 202.029 91.0248 208.652 106.3 213.696V247.894ZM62.506 263.118V237.346C76.6964 245.178 91.3165 252.241 106.3 258.504V285.924C105.71 285.697 105.078 285.471 104.509 285.223C89.7643 279.293 75.6882 271.885 62.506 263.118ZM116.395 289.694V262.645C129.983 268.173 143.991 272.657 158.293 276.056V301.746C143.856 298.223 129.167 294.144 116.395 289.694ZM259.306 253.93C250.581 253.353 242.298 253.044 233.236 253.271H231.508C222.424 253.044 214.1 253.271 205.374 253.93C188.83 255.166 173.888 260.399 159.599 262.171C144.858 260.347 130.391 256.82 116.501 251.664V216.951C141.791 224.759 157.281 237.552 232.414 237.552C304.069 237.552 323.037 224.677 348.327 216.951V251.788C334.397 256.925 319.895 260.437 305.123 262.253C290.792 260.399 275.85 255.166 259.306 253.93ZM306.388 276.056C320.683 272.638 334.69 268.154 348.285 262.645V289.694C335.514 294.144 320.887 298.223 306.388 301.746V276.056ZM360.171 285.223C359.602 285.471 358.97 285.697 358.401 285.924V258.504C373.381 252.233 388 245.17 402.195 237.346V263.118C389.008 271.889 374.925 279.297 360.171 285.223ZM402.195 225.892C388.171 234.264 373.533 241.612 358.401 247.874V213.676C373.682 208.628 388.364 201.991 402.195 193.878V225.892ZM412.332 163.512C396.969 179.581 375.282 193.61 338.043 203.828C352.648 189.593 352.69 173.503 340.466 159.742L415.81 113.224C428.181 128.634 428.75 146.165 412.332 163.512Z" fill="#EF723B"/>
</svg>
