<svg width="455" height="251" viewBox="0 0 455 251" fill="none" xmlns="http://www.w3.org/2000/svg">
<path d="M57.0001 185L64.271 135L406 148.235V261.47L387.096 274.706L296.938 310H160.246L57.0001 261.47V185Z" fill="white"/>
<path fill-rule="evenodd" clip-rule="evenodd" d="M427.573 77.2957L442.726 72.9488L458.785 68.3754L463 67.1599L458.785 66.0268L442.726 61.4534L426.667 56.8593L425.023 56.3855V78.0167V97.1346C422.056 94.1157 418.88 91.3004 415.518 88.7087C392.335 70.4355 354.147 55.5614 302.913 48.3922V20.8896L318.087 16.5428L334.147 11.9899L338.214 10.7538L334.147 9.62076L318.087 5.04729L302.007 0.453229L300.363 0V21.6107V47.9596C295.01 47.2385 289.531 46.5999 283.861 46.0437L284.009 45.7553C272.607 44.8282 261.585 44.2308 250.837 43.9423C248.729 43.9423 246.622 43.7775 244.662 43.7363H243.608C239.561 43.6539 235.578 43.6127 231.658 43.6127H231.342C227.422 43.6127 223.439 43.6539 219.392 43.7363H218.36C216.252 43.7363 214.25 43.8599 212.185 43.9423C201.415 44.2308 190.414 44.8282 179.012 45.7553L179.139 46.0437C173.47 46.5999 167.99 47.2385 162.637 47.9596V2.63696V0L160.993 0.453229L144.934 5.04729L128.854 9.62076L124.807 10.7538L128.854 11.9899L144.934 16.6046L160.087 20.9514V48.3304C108.874 55.4996 70.6019 70.3737 47.4824 88.6469C44.1336 91.2691 40.9654 94.1045 37.9986 97.1346V59.1048V56.3855L36.3548 56.8593L20.2744 61.4534L4.21515 66.0474L0.00012207 67.1805L4.21515 68.396L20.2744 72.9694L35.4485 77.3163V99.8128C27.37 108.255 22.1202 118.907 20.4009 130.344C18.2934 145.424 23.8151 160.772 37.261 175.007C41.5937 179.504 46.3417 183.6 51.4446 187.244V268.392C66.5444 278.782 82.7811 287.495 99.8542 294.37C118.19 301.931 145.271 312.809 167.8 318L167.674 304.156V271.194C179.319 267.27 191.444 264.874 203.734 264.066C204.239 264.066 204.808 263.942 205.377 263.901C213.534 263.345 222.238 263.18 231.637 263.427C240.994 263.18 249.734 263.338 257.855 263.901C258.403 263.901 258.972 263.901 259.477 264.066C271.773 264.876 283.905 267.273 295.558 271.194V304.156L295.432 318C317.961 312.809 345.042 301.931 363.399 294.37C380.399 287.488 396.564 278.783 411.598 268.413V187.244C416.702 183.626 421.444 179.542 425.76 175.048C439.291 160.813 444.728 145.465 442.62 130.385C440.897 118.943 435.648 108.286 427.573 99.8334V77.2957ZM408.036 105.952L332.166 152.799C318.34 142.086 296.232 133.496 266.833 129.561L301.881 65.6972C348.246 72.3308 382.556 85.5979 403.168 101.852C404.917 103.253 406.519 104.592 408.036 105.952ZM208.37 61.5358C210.14 61.5358 211.911 61.371 213.723 61.371C216.358 61.2474 218.95 61.2061 221.5 61.1649C224.703 61.1649 227.822 61.1649 230.963 61.1649H232.038C235.241 61.1649 238.36 61.1649 241.5 61.1649C244.135 61.1649 246.727 61.1649 249.277 61.371C251.047 61.371 252.818 61.3709 254.63 61.5358C267.507 62.0508 279.667 62.9778 291.196 64.3375L256.105 128.387C255.733 128.298 255.351 128.25 254.967 128.242L255.157 127.872C246.938 127.357 239.077 127.151 231.532 127.233C223.987 127.315 216.063 127.357 207.864 127.872L208.033 128.242C207.656 128.248 207.281 128.297 206.916 128.387L171.805 64.3375C183.333 62.9778 195.556 62.0508 208.37 61.5358ZM161.035 65.656L196.083 129.52C166.768 133.455 144.681 142.045 130.856 152.758L54.9852 105.911C56.4816 104.551 58.0833 103.212 59.7482 101.79C80.3597 85.6598 114.607 72.3926 160.972 65.759L161.035 65.656ZM48.0936 113.265L123.374 159.742C111.15 173.503 111.193 189.593 125.756 203.787C88.5158 193.486 66.9348 179.581 51.55 163.512C35.0903 146.145 35.7014 128.675 48.0936 113.265ZM105.46 247.894C90.3297 241.628 75.6921 234.281 61.666 225.913V193.94C75.5036 202.029 90.1848 208.652 105.46 213.696V247.894ZM61.666 263.118V237.346C75.8565 245.178 90.4766 252.241 105.46 258.504V285.924C104.87 285.697 104.238 285.471 103.669 285.223C88.9244 279.293 74.8483 271.885 61.666 263.118ZM115.555 289.694V262.645C129.143 268.173 143.151 272.657 157.453 276.056V301.746C143.016 298.223 128.327 294.144 115.555 289.694ZM258.466 253.93C249.741 253.353 241.458 253.044 232.396 253.271H230.668C221.584 253.044 213.26 253.271 204.534 253.93C187.99 255.166 173.048 260.399 158.759 262.171C144.019 260.347 129.551 256.82 115.661 251.664V216.951C140.951 224.759 156.441 237.552 231.574 237.552C303.229 237.552 322.197 224.677 347.487 216.951V251.788C333.557 256.925 319.055 260.438 304.283 262.253C289.952 260.399 275.01 255.166 258.466 253.93ZM305.548 276.056C319.843 272.638 333.85 268.154 347.445 262.645V289.694C334.674 294.144 320.047 298.223 305.548 301.746V276.056ZM359.331 285.223C358.762 285.471 358.13 285.697 357.561 285.924V258.504C372.541 252.233 387.16 245.17 401.355 237.346V263.118C388.168 271.889 374.085 279.297 359.331 285.223ZM401.355 225.892C387.331 234.264 372.694 241.612 357.561 247.874V213.676C372.842 208.628 387.525 201.991 401.355 193.878V225.892ZM411.492 163.512C396.129 179.581 374.442 193.61 337.203 203.828C351.808 189.593 351.85 173.503 339.626 159.742L414.97 113.224C427.341 128.634 427.91 146.165 411.492 163.512Z" fill="#EF723B"/>
</svg>
