<svg width="100" height="125" viewBox="0 0 100 125" fill="none" xmlns="http://www.w3.org/2000/svg">
<g id="Group 6">
<path id="Vector" fill-rule="evenodd" clip-rule="evenodd" d="M1.03809 102.016H99.075V124.699H1.03809V102.016Z" fill="black"/>
<path id="Vector_2" fill-rule="evenodd" clip-rule="evenodd" d="M1.03809 88.922H99.075V98.5099H1.03809V88.922Z" stroke="black" stroke-width="0.56"/>
<path id="Vector_3" fill-rule="evenodd" clip-rule="evenodd" d="M31.7659 105.744H46.3194V109.581H33.8625C33.4211 109.581 33.1269 109.9 33.1882 110.305V120.825H28.3574V109.581V108.797C28.4286 107.958 28.8144 107.177 29.4376 106.61C30.0607 106.044 30.8749 105.735 31.7169 105.744H31.7659Z" fill="white"/>
<path id="Vector_4" fill-rule="evenodd" clip-rule="evenodd" d="M23.353 120.824H6.55566V116.925H21.2686C21.7099 116.925 22.0043 116.607 21.943 116.214V114.277H9.92737C9.08429 114.283 8.27 113.971 7.64719 113.403C7.02438 112.834 6.63894 112.052 6.56794 111.212V110.427V105.67H11.3987V109.704C11.3858 109.798 11.3938 109.893 11.4224 109.983C11.451 110.074 11.4994 110.157 11.564 110.226C11.6286 110.295 11.7077 110.349 11.7958 110.384C11.8839 110.419 11.9785 110.434 12.073 110.427H21.8816V105.695H26.7001V117.722C26.6296 118.566 26.2455 119.352 25.6236 119.927C25.0017 120.501 24.1872 120.821 23.3407 120.824H23.353Z" fill="white"/>
<path id="Vector_5" fill-rule="evenodd" clip-rule="evenodd" d="M47.6299 105.731H55.9672L60.4546 115.528L64.9421 105.731H73.2303V120.824H68.7061L68.8164 109.532H68.0563L62.3673 120.824H58.5542L52.8652 109.532H52.056L52.1664 120.824H47.6299V105.731Z" fill="white"/>
<path id="Vector_6" fill-rule="evenodd" clip-rule="evenodd" d="M74.6777 105.744H79.2632V111.09H81.789L87.8825 105.768H94.4666L86.068 113.027L95.5332 120.825H88.5446L81.789 114.952H79.2632V120.825H74.6777V105.744Z" fill="white"/>
<path id="Vector_7" fill-rule="evenodd" clip-rule="evenodd" d="M83.3706 2.45927C84.0695 2.56961 84.7684 2.70448 85.455 2.83935L85.835 2.94973H86.1661L86.3378 3.0478H86.4113H86.5584C86.6197 3.26849 86.399 3.48917 85.9944 3.575C56.5687 5.15663 31.1522 15.2227 31.1522 41.0438C31.1522 54.4448 41.3041 62.5859 53.6874 67.7109C52.125 65.0579 51.1624 62.095 50.8674 59.0303C53.1769 61.7504 55.8504 64.1393 58.8123 66.1293C58.1555 63.8225 57.8619 61.4275 57.9419 59.0303C61.9511 65.4917 71.5635 75.5455 88.5937 78.5126C89.2803 78.5126 89.55 79.0276 88.5937 79.2851C81.2854 80.9481 73.8111 81.7708 66.316 81.7372C55.1003 81.8064 43.9615 79.8801 33.4204 76.0482L37.7362 81.9947C35.6413 81.9858 33.6254 81.1943 32.084 79.7755L24.4456 71.9899C22.9252 71.1684 21.4539 70.2979 20.0561 69.3906L29.1905 81.9947C27.0956 81.9858 25.0797 81.1943 23.5383 79.7755L11.7679 67.7722L5.38007 60.9185C4.44825 60.0725 4.0191 59.4104 5.50265 59.4227H8.59238C4.03245 54.2605 1.45184 47.6481 1.30957 40.7618C1.30957 18.4963 30.1591 0.301402 65.5313 0.301402C71.5097 0.291624 77.4765 0.825102 83.3583 1.89528L83.3706 2.45927Z" fill="#EF723B"/>
<path id="Vector_8" fill-rule="evenodd" clip-rule="evenodd" d="M25.537 34.1656C24.924 33.9572 29.3991 18.1653 44.4921 10.7353C46.1105 9.85287 47.7857 9.07877 49.5067 8.41806C52.204 7.48625 49.9113 9.36212 46.9074 10.7353C43.9716 12.0509 41.1951 13.6963 38.6314 15.6396C28.1607 24.026 25.9661 34.4599 25.537 34.1779V34.1656ZM88.1157 79.8982C58.9842 85.0109 35.934 80.1924 21.2947 70.7026L20.0686 69.9179L29.203 82.522C27.1076 82.5154 25.0908 81.7236 23.5508 80.3028L11.8172 68.3486L5.39255 61.458L5.50285 61.5439L5.58876 61.6174L5.69907 61.7033C3.06301 58.871 5.07371 59.6312 8.70289 59.6189L8.21258 59.0304L8.05318 58.8219C8.00378 58.7536 7.95056 58.6881 7.89379 58.6258C4.91897 54.8961 2.86116 50.5201 1.886 45.8501C0.807051 38.2117 4.87762 33.7242 5.56422 40.627C5.56963 40.7209 5.56963 40.8151 5.56422 40.909V40.7128C5.72421 43.7317 6.40016 46.7009 7.56272 49.4915C4.9144 31.4192 16.8931 24.7616 16.1452 31.2598L16.0472 31.4682C13.5951 47.5053 21.54 62.7944 41.7948 71.4873C22.9623 59.7906 21.025 35.3426 32.0842 22.1623C22.5086 42.368 30.2205 58.5767 49.0653 65.7983L52.4493 67.196L51.6034 66.9263L52.5596 67.1715C50.9972 64.5185 50.0347 61.5556 49.7397 58.4909C52.0492 61.211 54.7227 63.5999 57.6846 65.5899C57.0279 63.2831 56.7342 60.888 56.8142 58.4909C60.8234 64.9523 70.4358 75.0061 87.466 77.9732C88.1526 77.9732 88.4223 78.4882 87.466 78.7456L86.8774 78.8805C83.7754 78.8805 81.0659 78.8805 78.675 78.7579C81.3478 78.8642 84.1147 78.905 86.9756 78.8805L88.1157 79.8982Z" fill="#EF723B"/>
<path id="Vector_9" fill-rule="evenodd" clip-rule="evenodd" d="M61.1041 82.0314L60.9325 82.1295L60.0619 81.9578L61.1041 82.0314ZM25.548 69.7706C8.16226 59.1161 9.80511 43.9127 12.1224 42.9687C14.8075 41.8652 13.5202 67.9806 48.3284 77.7769V77.593L41.5604 74.3684L40.9351 74.0251L40.788 73.9393H40.69L40.5306 73.8412L40.3835 73.7554L40.2241 73.6695L40.1015 73.596H40.0156L39.8807 73.5224L39.7336 73.4366L39.5988 73.363H39.5006H39.4025L39.2554 73.2773L39.1083 73.1914L38.9121 73.081L38.7895 73.0075L38.6424 72.9094L38.5198 72.8358L38.3727 72.75L38.2745 72.6887L38.1396 72.6029C42.9251 74.7238 47.8391 76.542 52.8525 78.0466C54.7284 78.5738 56.5308 79.003 58.137 79.2727C65.0275 80.0206 61.619 77.9731 57.3155 76.5999L57.9285 76.7103C36.84 69.5377 27.6936 54.175 28.3067 39.8299C29.1649 14.0824 58.2719 5.04622 86.2387 3.94275C87.759 4.34735 87.2684 4.56803 86.0914 4.58029C56.6656 6.28454 31.5311 16.4119 31.5311 42.0982C31.5311 54.0279 40.4937 62.5 51.3077 67.6127C51.5651 67.7353 53.0487 68.2994 53.3184 68.422L53.956 68.6304C52.4234 66.2763 51.835 63.1253 51.3813 59.9866C53.6909 62.7067 56.3643 65.0955 59.3262 67.0855C58.6695 64.7787 58.3758 62.3837 58.4558 59.9866C62.465 66.448 72.0775 76.5018 89.1076 79.4689C89.7942 79.4689 90.064 79.9839 89.1076 80.2414H88.2861C88.1366 80.1886 87.9787 80.1637 87.8202 80.1678C85.395 80.1754 82.9721 80.3146 80.5619 80.5846H79.961H79.0171L79.5442 80.6827H79.1519L69.3433 81.0873C56.4695 80.8421 44.8218 78.5003 37.1098 74.6014C33.5251 72.8957 29.8401 71.4094 26.0751 70.1507L25.548 69.7706ZM4.93762 40.725C3.18433 40.6269 2.71842 50.3987 11.068 60.5996H11.7424C5.04802 50.1903 6.94841 40.0016 4.97444 40.725H4.93762Z" fill="#CC2B2F"/>
<path id="Vector_10" fill-rule="evenodd" clip-rule="evenodd" d="M22.1658 72.7377L27.6218 80.3516C26.8182 80.3523 26.0241 80.177 25.2955 79.8381C24.5669 79.4992 23.9214 79.0049 23.4041 78.3899L6.74169 62.9046L5.16016 61.2003L20.8538 74.491C21.7611 75.2634 23.3796 74.7117 22.1658 72.7377Z" fill="#CC2B2F"/>
<path id="Vector_11" fill-rule="evenodd" clip-rule="evenodd" d="M23.1333 74.0742L29.5212 82.718C28.4016 82.729 27.2909 82.518 26.2534 82.0971C25.2159 81.6762 24.2721 81.0538 23.4766 80.2659L11.6818 68.1645L5.4043 61.4211L20.0314 75.1286C21.1594 76.1953 25.4138 78.01 23.1333 74.0375V74.0742Z" fill="black"/>
<path id="Vector_12" fill-rule="evenodd" clip-rule="evenodd" d="M12.6504 65.8106C14.2456 67.7242 16.0236 69.4776 17.9592 71.046C19.9087 72.6276 21.1593 74.4176 21.6375 74.1602C23.0965 73.3877 19.6635 70.2245 16.3286 68.3363C16.3286 68.4221 12.6504 65.7616 12.6504 65.8106Z" fill="#EF723B"/>
<path id="Vector_13" fill-rule="evenodd" clip-rule="evenodd" d="M8.62923 50.0923C8.62923 50.2271 8.62918 50.3742 8.72727 50.5214C7.55637 47.7242 6.87615 44.7463 6.71649 41.7182V41.9144C6.7219 41.8205 6.7219 41.7263 6.71649 41.6324C6.04215 34.8154 2.06967 39.1067 3.03827 46.5367C1.53019 39.1802 4.26433 36.0292 5.78466 36.5442C8.38394 37.5373 6.75338 43.8393 8.66605 50.031L8.62923 50.0923Z" fill="#EF723B"/>
<path id="Vector_14" fill-rule="evenodd" clip-rule="evenodd" d="M91.929 52.8265C94.0885 53.8753 95.8886 55.5409 97.1015 57.6127C98.3144 59.6845 98.8857 62.0694 98.7432 64.4659C98.6006 66.8624 97.7506 69.1628 96.3006 71.0762C94.8507 72.9896 92.8659 74.4301 90.5972 75.2154C88.3286 76.0008 85.878 76.0958 83.5554 75.4884C81.2328 74.881 79.1425 73.5984 77.5488 71.803C75.9551 70.0076 74.9295 67.78 74.6019 65.4017C74.2742 63.0234 74.6592 60.6014 75.7081 58.4419C77.1195 55.5509 79.6188 53.3369 82.6589 52.2845C85.699 51.232 89.0322 51.4269 91.929 52.8265Z" fill="#CC2B2F"/>
<path id="Vector_15" fill-rule="evenodd" clip-rule="evenodd" d="M81.5306 73.8782C79.4837 72.8854 77.7773 71.3078 76.6271 69.3451C75.4769 67.3823 74.9346 65.1225 75.0689 62.8515C75.2032 60.5805 76.008 58.4003 77.3816 56.5868C78.7551 54.7732 80.6358 53.4079 82.7854 52.6633C84.9351 51.9187 87.2572 51.8285 89.4582 52.4039C91.6592 52.9793 93.6401 54.1945 95.1503 55.8959C96.6606 57.5973 97.6323 59.7083 97.9425 61.9621C98.2528 64.2158 97.8877 66.5108 96.8934 68.557C95.5584 71.2967 93.1915 73.3954 90.3118 74.3928C87.432 75.3903 84.2742 75.2052 81.5306 73.8782Z" fill="#EF723B"/>
<path id="Vector_16" fill-rule="evenodd" clip-rule="evenodd" d="M76.2104 68.5814C75.5414 67.1276 75.1832 65.5502 75.1586 63.9501C75.134 62.35 75.4436 60.7624 76.0677 59.2888C76.6917 57.8152 77.6164 56.488 78.7826 55.3922C79.9489 54.2963 81.3308 53.456 82.8404 52.9248C84.35 52.3936 85.9538 52.1834 87.5492 52.3074C89.1447 52.4315 90.6968 52.8871 92.1062 53.6452C93.5155 54.4034 94.751 55.4473 95.7338 56.7103C96.7166 57.9732 97.4251 59.4273 97.8139 60.9797C96.5445 58.4944 94.4155 56.5549 91.8231 55.5218C89.2308 54.4886 86.3514 54.4322 83.7206 55.3631C81.0898 56.294 78.8866 58.1489 77.5209 60.5825C76.1553 63.0162 75.72 65.8631 76.2962 68.5936L76.2104 68.5814Z" fill="#EF723B"/>
<path id="Vector_17" fill-rule="evenodd" clip-rule="evenodd" d="M94.319 72.0145C92.5044 71.3157 89.1572 68.6429 85.8713 65.3815C82.8644 62.5132 80.2283 59.2798 78.0244 55.7568L78.3923 55.3767C80.5875 58.9099 83.2198 62.1519 86.2269 65.0259C89.6354 68.3976 93.0929 71.1563 94.7358 71.6099C94.6009 71.757 94.4539 71.8797 94.319 72.0145Z" fill="#CC2B2F"/>
<path id="Vector_18" fill-rule="evenodd" clip-rule="evenodd" d="M78.4287 71.708C79.9369 72.8773 81.7374 73.6099 83.6335 73.8261C85.5297 74.0423 87.4486 73.7338 89.1814 72.934C90.8303 72.1803 92.2948 71.0756 93.4727 69.6972C94.664 68.3173 95.5573 66.706 96.0965 64.9646C96.6931 63.1451 96.7799 61.197 96.3476 59.3317C95.9153 57.4664 94.9804 55.7551 93.6443 54.3835C94.5875 55.0887 95.4149 55.9367 96.0965 56.897C97.3535 59.4534 97.5732 62.397 96.7095 65.1117C96.144 66.9166 95.2134 68.586 93.9754 70.016C92.7541 71.4527 91.2356 72.6072 89.5247 73.4C87.0136 74.5674 84.1469 74.7125 81.5307 73.8046C80.4314 73.2549 79.4259 72.5349 78.5514 71.6712L78.4287 71.708Z" fill="#CC2B2F"/>
<path id="Vector_19" fill-rule="evenodd" clip-rule="evenodd" d="M90.3099 74.4667C91.1436 73.7188 90.8616 73.1303 89.9543 72.6399C88.3835 71.9572 86.7372 71.4633 85.05 71.1686C82.8977 70.7735 80.8261 70.0236 78.9196 68.9494C77.356 68.0484 76.0804 66.7218 75.2414 65.124C75.166 64.5757 75.1333 64.0223 75.1434 63.4689C75.7958 65.6201 77.2661 67.4294 79.2384 68.508C81.1105 69.5516 83.1394 70.2844 85.2462 70.6781C86.9896 70.9714 88.6902 71.4779 90.3099 72.1862C91.2908 72.7135 91.7444 73.3387 91.3766 74.0866C91.0578 74.2215 90.739 74.3564 90.4202 74.4667H90.3099Z" fill="#CC2B2F"/>
<path id="Vector_20" fill-rule="evenodd" clip-rule="evenodd" d="M96.5864 69.1946L96.329 69.3295C96.1004 69.4442 95.8503 69.51 95.5949 69.5227C95.3394 69.5353 95.0841 69.4946 94.8453 69.403C94.3069 69.1571 93.8543 68.7557 93.5458 68.2505C92.7634 66.9049 92.2745 65.409 92.1112 63.8611C91.6682 60.9883 90.5505 58.2613 88.8498 55.9039C88.2244 54.9973 87.4219 54.2267 86.4905 53.6388C85.5591 53.0509 84.5182 52.6578 83.4307 52.4832L84.5586 52.2257C86.451 52.8181 88.0994 54.0102 89.2545 55.622C91.0036 58.054 92.1545 60.8642 92.6139 63.8244C92.7709 65.2977 93.2345 66.7219 93.9749 68.0053C94.2273 68.4231 94.5987 68.7562 95.0415 68.9616C95.21 69.0342 95.3916 69.0716 95.575 69.0716C95.7584 69.0716 95.9398 69.0342 96.1082 68.9616C96.546 68.7279 96.9205 68.3913 97.1995 67.9808C97.1014 68.2015 97.0156 68.4222 96.9052 68.6429L96.5741 69.2804L96.5864 69.1946Z" fill="#CC2B2F"/>
<path id="Vector_21" fill-rule="evenodd" clip-rule="evenodd" d="M46.8826 10.7107C56.6912 6.60333 64.0478 4.80101 77.9514 3.67303C87.5271 3.53816 90.298 3.74659 78.2457 2.10365C66.1934 0.460715 46.3678 2.72895 39.7715 5.2424C54.3618 3.84468 55.4406 6.88533 46.8826 10.7107Z" fill="white"/>
<path id="Vector_22" fill-rule="evenodd" clip-rule="evenodd" d="M51.8972 5.3283C48.7094 3.3298 19.8352 10.7476 18.6582 38.322L18.7809 39.0453C23.9182 8.95748 55.7838 7.78045 51.8849 5.3283H51.8972Z" fill="#FFF100"/>
<path id="Vector_23" fill-rule="evenodd" clip-rule="evenodd" d="M41.4137 5.02161H41.3401C43.9151 4.82287 46.5017 4.82287 49.0767 5.02161C44.3808 5.48752 35.2956 8.62628 28.2334 15.762C29.9131 13.5919 26.7621 13.8003 23.4149 15.762C19.8204 18.132 16.629 21.0628 13.9619 24.4427C8.28518 31.4435 6.69127 42.049 8.73882 50.3863C7.56791 47.5892 6.88769 44.6113 6.72804 41.5831V41.7793C6.73345 41.6854 6.73345 41.5912 6.72804 41.4973C6.0537 34.5945 1.98313 39.0452 3.04981 46.7204C3.04981 46.7204 3.04981 46.7204 3.04981 46.6468C3.04408 46.6227 3.04408 46.5975 3.04981 46.5733C2.90269 45.8254 2.79231 45.0652 2.71875 44.305C2.71875 44.0966 2.71875 43.9004 2.71875 43.7043V43.6307C2.71875 43.6307 2.71875 43.6307 2.71875 43.5571C2.72483 43.5042 2.72483 43.4507 2.71875 43.3978V43.2506C2.71875 43.2506 2.71875 43.1893 2.71875 43.1648V43.0177C2.7247 42.9894 2.7247 42.9601 2.71875 42.9318V42.797V42.7112C2.71875 42.7112 2.71875 42.7112 2.71875 42.6376V42.5885V42.4291V42.2943V41.9878C2.71875 41.669 2.71875 41.3625 2.71875 41.0437C2.71875 40.9578 2.71875 40.8843 2.71875 40.7862C2.71875 40.6881 2.71875 40.3203 2.71875 40.0751C2.71875 39.8299 2.71875 39.9034 2.71875 39.8176C2.71875 39.5111 2.71885 39.2046 2.81693 38.898V38.8245C2.81693 38.5547 2.89047 38.2728 2.93951 38.003C2.98855 37.7333 2.93951 37.7701 2.93951 37.6597L3.04981 37.0589C3.04981 36.9486 3.04981 36.8505 3.04981 36.7402C3.04981 36.6298 3.17246 36.1639 3.24603 35.8696V35.7348C3.24603 35.4773 3.36868 35.2321 3.44224 34.9746C3.46517 34.875 3.49376 34.7767 3.528 34.6803L3.71194 34.0673C3.71194 33.9692 3.77319 33.8589 3.80997 33.7608L4.10422 32.9148C4.12763 32.8473 4.15641 32.7817 4.19013 32.7187C4.26108 32.4925 4.34705 32.2713 4.44756 32.0566C4.48097 31.9476 4.52191 31.8411 4.57013 31.7378L4.82771 31.1247C4.87354 31.0414 4.91445 30.9554 4.95029 30.8673C5.0729 30.5853 5.2077 30.3155 5.34257 30.0336L5.44075 29.8374L5.78394 29.1876C5.78394 29.0895 5.88203 28.9914 5.94333 28.8933L6.26212 28.3293L6.43379 28.0228C6.58092 27.7653 6.74031 27.5201 6.8997 27.2503C7.05909 26.9806 7.01007 27.0787 7.07137 26.9929C7.13268 26.9071 7.30437 26.625 7.42698 26.4411L7.64759 26.0978L8.0032 25.6074L8.21169 25.3132L8.75109 24.5775L9.00852 24.2587L9.3764 23.7928L9.65837 23.4373C9.76872 23.3024 9.90363 23.1553 10.014 23.0081L10.3082 22.6771C10.5044 22.4442 10.7128 22.2112 10.9213 21.9905L11.2155 21.6717C11.3381 21.5246 11.4729 21.3897 11.6078 21.2426L11.9511 20.8993C12.086 20.7522 12.221 20.6173 12.3681 20.4824C12.4763 20.3619 12.5908 20.2473 12.7113 20.1391L13.3366 19.5384L13.7534 19.1583L14.109 18.8272L14.5504 18.4349L14.8446 18.1897L15.8133 17.3682L16.0218 17.1966L16.5489 16.7919L16.8554 16.5345L17.3827 16.1421L17.6892 15.9092L18.7804 15.1122C18.8505 15.0744 18.9161 15.0292 18.9765 14.9774L19.5651 14.5727L19.8717 14.3766C20.0678 14.2294 20.2763 14.0946 20.4847 13.9597L20.6562 13.8494L22.0908 12.9543L22.8264 12.5129L22.9981 12.4026C24.0647 11.7896 25.156 11.1765 26.284 10.6125L26.5046 10.5022C27.6326 9.93817 28.7975 9.38644 29.9868 8.85923L30.1583 8.78567C31.3844 8.25846 32.6104 7.74352 33.8365 7.26535H33.9224C35.2221 6.77492 36.5462 6.32125 37.8826 5.90439H38.0175L39.6114 5.42624C40.1269 5.29634 40.6516 5.20616 41.1808 5.1565L41.4137 5.02161Z" fill="#EF723B"/>
<path id="Vector_24" fill-rule="evenodd" clip-rule="evenodd" d="M65.5315 0.730498C71.9508 0.725627 78.3558 1.33741 84.6582 2.55737C84.9008 2.60831 85.1357 2.69072 85.357 2.80257C79.1227 1.60164 72.7876 1.00221 66.4388 1.01251C30.8826 1.01251 1.8982 19.2688 1.8982 41.6446C2.02873 48.3631 4.48556 54.8282 8.84995 59.9377H8.16342C3.64992 54.7869 1.09715 48.2096 0.954102 41.3626C0.954102 18.9868 29.9385 0.730498 65.4947 0.730498H65.5315Z" fill="#CC2B2F"/>
<path id="Vector_25" fill-rule="evenodd" clip-rule="evenodd" d="M36.6067 74.2215C45.1893 78.5618 58.6761 80.9772 73.2664 80.7075C74.4189 80.5726 75.4733 80.6094 76.5032 80.5358C77.7293 80.4377 78.9554 80.2416 80.0589 80.1557C82.469 79.8857 84.8919 79.7465 87.3171 79.7388C89.0336 79.8492 86.3977 80.5235 77.1285 81.6392C76.0006 81.7741 74.8113 81.7619 73.4503 81.8967C60.7359 83.2945 41.4376 79.9841 33.5049 76.6859L37.7348 82.522C35.6399 82.5131 33.624 81.7216 32.0826 80.3029L24.6648 72.738C13.3972 67.1348 20.3123 66.6076 36.5701 74.2215H36.6067Z" fill="white"/>
<path id="Vector_26" fill-rule="evenodd" clip-rule="evenodd" d="M87.1346 78.5863C88.3606 78.5005 89.2925 78.758 89.3047 79.1749C89.3073 79.2157 89.3009 79.2565 89.286 79.2946C89.2712 79.3327 89.2483 79.3672 89.2188 79.3956L89.1454 79.4691C88.6133 79.8355 87.9884 80.0438 87.3429 80.0699C83.9388 80.9352 80.4698 81.5216 76.9704 81.8232C76.0753 81.9213 75.1803 82.0684 74.2117 82.1297C62.8092 83.0247 45.4848 82.0561 33.7513 76.9434L37.7606 82.6201C35.6063 82.6636 33.5205 81.8627 31.949 80.3887L24.5925 72.836H24.4943C21.2453 71.2176 19.5043 70.0283 19.0752 69.3295C20.8928 70.509 22.8331 71.4875 24.8622 72.2475C43.6429 81.2544 64.8266 83.9674 85.2709 79.9841C85.0257 79.886 84.8907 79.7511 84.8785 79.5917C84.8785 79.1871 85.8226 78.7825 87.0118 78.6844L87.1346 78.5863Z" fill="black"/>
<path id="Vector_27" fill-rule="evenodd" clip-rule="evenodd" d="M75.8671 76.7349C66.0585 73.9149 61.9757 67.5761 59.0454 69.734C57.0714 72.2475 62.9075 77.5441 75.9407 77.1517C75.8994 77.0163 75.8746 76.8763 75.8671 76.7349Z" fill="#EF723B"/>
<path id="Vector_28" fill-rule="evenodd" clip-rule="evenodd" d="M73.7207 76.5635C67.2593 74.5037 64.4148 70.7519 62.2201 71.6592C60.2461 72.5787 64.4148 75.7911 73.7575 76.6493C73.754 76.6126 73.754 76.5756 73.7575 76.5389L73.7207 76.5635Z" fill="white"/>
<path id="Vector_29" fill-rule="evenodd" clip-rule="evenodd" d="M66.2917 72.8973C64.5507 71.8551 63.3123 71.1808 62.2334 71.6712C62.0433 71.7437 61.8863 71.8833 61.792 72.0635C62.0052 72.5639 62.3604 72.9909 62.8136 73.2916C63.2669 73.5923 63.7983 73.7535 64.3422 73.7555C64.7052 73.7536 65.0643 73.6801 65.3988 73.5391C65.7334 73.3981 66.0368 73.1925 66.2917 72.9341V72.8973Z" fill="black"/>
<path id="Vector_30" fill-rule="evenodd" clip-rule="evenodd" d="M62.9067 71.757C63.0281 71.7759 63.1387 71.8376 63.2186 71.9309C63.2985 72.0242 63.3424 72.143 63.3424 72.2659C63.3424 72.3887 63.2985 72.5075 63.2186 72.6008C63.1387 72.6941 63.0281 72.7558 62.9067 72.7746C62.8332 72.7861 62.7582 72.7815 62.6867 72.7612C62.6152 72.7409 62.5489 72.7053 62.4924 72.6569C62.4359 72.6086 62.3907 72.5487 62.3596 72.4812C62.3286 72.4136 62.3125 72.3402 62.3125 72.2659C62.3125 72.1915 62.3286 72.1181 62.3596 72.0506C62.3907 71.983 62.4359 71.923 62.4924 71.8747C62.5489 71.8264 62.6152 71.7908 62.6867 71.7705C62.7582 71.7501 62.8332 71.7456 62.9067 71.757Z" fill="white"/>
<path id="Vector_31" fill-rule="evenodd" clip-rule="evenodd" d="M86.0568 4.05321C56.631 5.61033 31.2266 15.6641 31.2266 41.522C31.2266 51.5881 37.5777 59.1652 46.0131 64.3638C47.3618 65.1975 48.7717 65.8596 50.243 66.6197C50.5373 66.7669 51.6041 67.2328 52.4991 67.6251C51.6905 64.9827 51.1644 62.2619 50.9297 59.5085C51.5918 62.6963 53.1489 67.7477 54.8776 70.1018L53.2347 69.501C53.0018 69.0106 52.781 68.4466 52.5603 67.8336L50.1082 66.9753C39.0735 61.8994 29.9639 53.1942 29.9639 41.0071C29.9639 15.9706 55.8217 5.09536 86.1548 3.80798C86.1548 4.01642 86.3755 3.96738 86.0199 4.04094L86.0568 4.05321ZM57.857 65.9209C57.5774 63.7901 57.6103 61.6298 57.9551 59.5085C57.875 61.9016 58.1687 64.2927 58.8255 66.5953C58.4945 66.3746 58.1636 66.1416 57.857 65.9087V65.9209Z" fill="black"/>
<path id="Vector_32" fill-rule="evenodd" clip-rule="evenodd" d="M94.1354 93.2624H95.8642C96.1549 93.2592 96.4443 93.3005 96.7224 93.385C97.0068 93.4661 97.2566 93.6384 97.4335 93.8755C97.6575 94.1748 97.7663 94.5447 97.74 94.9176C97.7666 95.302 97.6486 95.6824 97.4091 95.9843C97.217 96.2108 96.9603 96.3734 96.6733 96.4502C96.4081 96.5128 96.1368 96.5457 95.8642 96.5483H93.4121V90.9451H97.3846V91.6317H94.1354V93.2869V93.2624ZM94.1354 95.923H95.7048C96.0225 95.9409 96.3382 95.8641 96.6121 95.7023C96.7258 95.6149 96.8165 95.5011 96.8763 95.3708C96.9361 95.2405 96.9633 95.0976 96.9555 94.9544C96.9778 94.7913 96.9497 94.6253 96.8752 94.4785C96.8008 94.3318 96.6833 94.2112 96.5385 94.1329C96.2778 94.0087 95.9936 93.9419 95.7048 93.9367H94.1354V95.972V95.923ZM91.904 91.0187H92.7009L90.8005 95.6287C90.6929 95.9567 90.4978 96.2492 90.2365 96.4747C90.0118 96.6134 89.7525 96.6857 89.4886 96.6831H89.3905C89.1765 96.684 88.9629 96.6635 88.753 96.6218V95.972C88.924 96.0244 89.1014 96.0532 89.2802 96.0578C89.4639 96.0573 89.6432 96.0018 89.7951 95.8984C89.989 95.7238 90.1222 95.4919 90.1752 95.2364L88.0419 91.0187H88.9737L90.5675 94.4027L91.904 91.0187ZM82.3774 95.923H82.5735C82.7102 95.9256 82.8455 95.8945 82.9674 95.8325C83.0893 95.7705 83.194 95.6795 83.2724 95.5674C83.4584 95.2915 83.58 94.9772 83.628 94.6479C83.695 94.2221 83.7277 93.7915 83.7261 93.3604L83.7996 90.9083H87.2572V96.536H86.5093V91.6317H84.4985V93.5689C84.4978 94.0967 84.4402 94.6228 84.3268 95.1383C84.2524 95.5441 84.0607 95.9193 83.7752 96.2172C83.6372 96.3499 83.4736 96.4532 83.2944 96.5207C83.1153 96.5881 82.9241 96.6184 82.7329 96.6096H82.4264V95.9598L82.3774 95.923ZM81.0532 91.0187H82.0586L79.7168 93.3237L82.1689 96.6218H81.188L79.1406 93.8386L78.2333 94.7092V96.536H77.4977V90.9328H78.2333V93.7161L81.0165 90.9328L81.0532 91.0187ZM72.8631 91.0187H73.611V96.536H72.8631V91.9872L69.8714 96.536H69.1235V90.9328H69.8714V95.4325L72.8631 90.9328V91.0187ZM70.5703 89.7926C70.596 89.9603 70.6681 90.1175 70.7787 90.2462C70.856 90.3169 70.9473 90.3708 71.0464 90.4045C71.1456 90.4383 71.2506 90.4512 71.355 90.4425C71.4644 90.4549 71.5751 90.4425 71.6791 90.4065C71.783 90.3704 71.8776 90.3114 71.9558 90.234C72.0615 90.1096 72.1258 89.9553 72.1397 89.7926H72.7405C72.6907 90.0793 72.5485 90.3419 72.3358 90.5405C72.0621 90.7681 71.7096 90.8783 71.355 90.847C71.0049 90.8724 70.6582 90.7627 70.3864 90.5405C70.1707 90.3442 70.0281 90.0805 69.9818 89.7926H70.5703ZM62.9686 93.3604H64.5748C64.922 93.346 65.2673 93.4177 65.5801 93.5689C65.8481 93.6902 66.0682 93.8972 66.2054 94.1574C66.3475 94.4253 66.4193 94.7248 66.4139 95.028C66.4158 95.3004 66.3527 95.5693 66.23 95.8126C66.1096 96.0742 65.9074 96.2894 65.6538 96.4256C65.3219 96.6008 64.9498 96.6854 64.5748 96.6709H62.2575V91.0677H63.0177V93.3604H62.9686ZM62.9686 96.0334H64.4889C64.7566 96.0349 65.0196 95.9628 65.2491 95.8249C65.3817 95.7389 65.4877 95.6176 65.5548 95.4746C65.622 95.3316 65.6478 95.1726 65.6292 95.0157C65.6385 94.8741 65.6158 94.7322 65.5628 94.6006C65.5097 94.469 65.4276 94.3511 65.3227 94.2555C65.0525 94.0513 64.7159 93.9551 64.3786 93.9858H62.9686V96.0334ZM67.7258 96.6709H66.9779V91.0677H67.7258V96.536V96.6709ZM57.1815 96.6709H56.4337V91.0677H57.1815V93.4095H60.0016V91.0677H60.7495V96.536H60.0016V93.8999H57.1815V96.536V96.6709ZM52.0075 93.3604H53.675C54.0262 93.3445 54.3759 93.4162 54.6926 93.5689C54.9606 93.6902 55.1806 93.8972 55.3179 94.1574C55.46 94.4253 55.5317 94.7248 55.5264 95.028C55.5161 95.2989 55.4536 95.5653 55.3424 95.8126C55.2221 96.0742 55.0198 96.2894 54.7662 96.4256C54.4306 96.6024 54.054 96.687 53.675 96.6709H51.2228V91.0677H51.9707V93.3604H52.0075ZM52.0075 96.0334H53.5279C53.7995 96.0353 54.0665 95.9632 54.3003 95.8249C54.4317 95.7384 54.5359 95.6166 54.601 95.4734C54.6661 95.3302 54.6894 95.1715 54.6682 95.0157C54.679 94.875 54.6582 94.7338 54.6073 94.6022C54.5563 94.4707 54.4765 94.3522 54.3738 94.2555C54.1036 94.0513 53.7671 93.9551 53.4298 93.9858H52.0075V96.0334ZM44.9822 96.0334H45.1661C45.3049 96.038 45.4426 96.0079 45.5668 95.9458C45.691 95.8837 45.7976 95.7915 45.8772 95.6777C46.0631 95.4018 46.1847 95.0875 46.2328 94.7582C46.2997 94.3324 46.3325 93.9019 46.3308 93.4708L46.4043 91.0187H49.8619V96.536H49.114V91.6317H47.1033V93.5689C47.1025 94.0967 47.0449 94.6228 46.9316 95.1383C46.852 95.5424 46.6609 95.9161 46.3799 96.2172C46.2419 96.3499 46.0784 96.4532 45.8992 96.5207C45.72 96.5881 45.5289 96.6184 45.3376 96.6096H45.0311V95.9598L44.9822 96.0334ZM41.7944 96.8303C41.2794 96.8462 40.77 96.7189 40.323 96.4624C39.9134 96.2218 39.5912 95.8567 39.4035 95.4203C39.1963 94.9319 39.0919 94.406 39.097 93.8755C39.0895 93.3618 39.1897 92.8522 39.3912 92.3796C39.5731 91.9407 39.8856 91.5683 40.2862 91.3129C40.7407 91.0561 41.254 90.9212 41.776 90.9212C42.298 90.9212 42.8111 91.0561 43.2656 91.3129C43.6694 91.5626 43.9863 91.9308 44.1729 92.3673C44.3791 92.8518 44.4835 93.3734 44.4794 93.8999C44.4897 94.4401 44.3809 94.976 44.1606 95.4693C43.9732 95.899 43.656 96.2591 43.2534 96.4992C42.8074 96.7457 42.3038 96.8685 41.7944 96.8548V96.8303ZM41.7944 96.2172C42.0997 96.2197 42.4016 96.1526 42.6771 96.0211C42.9847 95.867 43.2341 95.6175 43.3882 95.3099C43.5905 94.8599 43.6829 94.3682 43.6579 93.8755C43.682 93.3933 43.5851 92.9128 43.3759 92.4777C43.2226 92.1604 42.974 91.899 42.6649 91.7298C42.3945 91.5946 42.0967 91.5232 41.7944 91.5213C41.494 91.5278 41.1979 91.5945 40.9238 91.7175C40.6115 91.8808 40.3584 92.1381 40.2005 92.4532C40.0065 92.9044 39.9065 93.3904 39.9065 93.8816C39.9065 94.3727 40.0065 94.8587 40.2005 95.3099C40.3584 95.6189 40.6122 95.8684 40.9238 96.0211C41.1955 96.1512 41.4932 96.2183 41.7944 96.2172ZM34.7689 93.385H36.4854C36.7801 93.3819 37.0735 93.4232 37.3559 93.5076C37.6388 93.5919 37.8878 93.7636 38.0671 93.998C38.2819 94.3013 38.3858 94.6694 38.3613 95.0402C38.3856 95.4224 38.2726 95.8007 38.0425 96.1069C37.8505 96.3335 37.5939 96.496 37.3069 96.5728C37.0377 96.6363 36.7621 96.6692 36.4854 96.6709H34.0333V91.0677H38.0057V91.6317H34.7812V93.2869L34.7689 93.385ZM34.7689 96.0456H36.3383C36.6558 96.062 36.9711 95.9853 37.2456 95.8249C37.3592 95.7375 37.4499 95.6237 37.5097 95.4934C37.5695 95.363 37.5967 95.2201 37.5889 95.077C37.6078 94.9142 37.5783 94.7495 37.5042 94.6034C37.4301 94.4573 37.3146 94.3364 37.1721 94.2555C36.9114 94.1314 36.627 94.0645 36.3383 94.0593H34.7689V96.0946V96.0456ZM28.7979 91.7298V91.08H33.1751V91.6317H31.3605V96.536H30.6003V91.6317L28.7979 91.7298ZM28.0623 93.4708V94.1207H25.132V96.0334H28.4547V96.536H24.3718V90.9328H28.3688V91.6317H25.132V93.3727L28.0623 93.4708ZM22.4715 91.08H23.4768L21.1227 93.385L23.5748 96.6831H22.594L20.5342 93.8999L19.6392 94.7705V96.536H18.9036V90.9328H19.6392V93.7161L22.4224 90.9328L22.4715 91.08ZM17.886 94.8317C17.8753 95.1397 17.7956 95.4414 17.6529 95.7146C17.4759 96.0478 17.2081 96.3241 16.8805 96.5115C16.4545 96.7369 15.9768 96.8469 15.495 96.8303C14.9949 96.8451 14.4997 96.7267 14.0605 96.487C13.6522 96.2502 13.3301 95.8894 13.1409 95.4571C12.9189 94.9599 12.8102 94.4198 12.8223 93.8755C12.8126 93.3314 12.9212 92.7916 13.1409 92.2938C13.3301 91.8614 13.6522 91.5007 14.0605 91.2639C14.4987 91.0205 14.9938 90.8978 15.495 90.9083C15.9785 90.8894 16.4578 91.004 16.8805 91.2394C17.2053 91.4303 17.4722 91.7058 17.6529 92.0363C17.7944 92.3143 17.8739 92.6197 17.886 92.9313H17.1013C17.0993 92.6983 17.0358 92.47 16.9173 92.2693C16.79 92.0437 16.6034 91.8572 16.3778 91.7298C16.1138 91.5893 15.8186 91.5175 15.5196 91.5213C15.1598 91.5097 14.8064 91.6175 14.5143 91.8279C14.2146 92.0328 13.9838 92.3234 13.8521 92.6616C13.6899 93.0496 13.6104 93.4673 13.6191 93.8877C13.6082 94.3084 13.6877 94.7265 13.8521 95.1138C13.9838 95.452 14.2146 95.7426 14.5143 95.9475C14.8102 96.1487 15.1619 96.2517 15.5196 96.2418C15.8176 96.2494 16.1127 96.1819 16.3778 96.0456C16.6 95.9192 16.7859 95.7376 16.9173 95.5183C17.0348 95.3172 17.0981 95.0892 17.1013 94.8563L17.886 94.8317ZM8.16313 96.6831H7.37843L9.48724 91.08H10.321L12.4421 96.6831H11.6206L11.0812 95.2486H8.70253L8.16313 96.6831ZM10.8604 94.5988L9.89194 91.8524L8.89875 94.5988H10.8604ZM3.40596 93.3727H5.13477C5.42548 93.3687 5.71499 93.4101 5.99296 93.4954C6.27958 93.5789 6.53262 93.7504 6.7163 93.9858C6.93114 94.289 7.03504 94.6571 7.01054 95.028C7.03709 95.4124 6.91914 95.7928 6.67963 96.0946C6.49239 96.3209 6.23959 96.4837 5.95614 96.5606C5.68663 96.6227 5.41132 96.6555 5.13477 96.6586H2.68262V91.0555H6.65508V91.6317H3.40596V93.2869V93.3727ZM3.40596 96.0334H4.97537C5.29689 96.0515 5.61666 95.9747 5.89493 95.8126C6.0048 95.7225 6.09201 95.608 6.14951 95.4781C6.20701 95.3482 6.23321 95.2066 6.22599 95.0647C6.24829 94.9016 6.22025 94.7357 6.14577 94.5889C6.07129 94.4421 5.9538 94.3215 5.80902 94.2433C5.54829 94.1191 5.2641 94.0522 4.97537 94.047H3.40596V96.0824V96.0334Z" fill="black"/>
</g>
</svg>
