<svg width="179" height="111" viewBox="0 0 179 111" fill="none" xmlns="http://www.w3.org/2000/svg">
<g id="Group 7">
<path id="Vector" d="M67.956 4.34975C73.2986 2.11695 78.9502 0.711276 84.7163 0.181107C87.8796 0.046239 91.0184 0.046239 94.1694 0.181107C99.9355 0.704142 105.587 2.10579 110.93 4.33748H110.991C113.111 5.21346 115.16 6.25048 117.122 7.43944C117.967 7.89066 118.786 8.39009 119.574 8.93526C125.77 12.94 131.092 18.1575 135.218 24.2735C135.537 24.7516 135.831 25.242 136.113 25.757C136.261 25.9654 136.53 26.4068 136.677 26.6153C137.289 27.4925 137.811 28.429 138.234 29.4107C138.234 29.4107 138.235 29.5456 138.333 29.5946L138.455 29.8521L138.59 30.1341L138.786 30.4651C138.84 30.6072 138.901 30.7464 138.97 30.882L139.105 31.1395L139.179 31.2989L139.681 32.2552C137.131 32.8437 134.544 33.2115 131.982 33.7265C127.277 24.4382 119.712 16.9077 110.403 12.2457C105.985 10.0248 101.242 8.52243 96.3519 7.79502C97.0262 10.2472 97.7127 12.6135 98.3871 15.0288C104.787 37.6131 111.179 60.1974 117.563 82.7817H100.717L98.7304 74.4566H79.2481C78.586 77.2644 77.9116 80.0598 77.2373 82.8675H60.4156C66.8075 60.2587 73.1995 37.6499 79.5914 15.0411C80.278 12.638 80.9606 10.2267 81.639 7.80729C70.802 9.46993 60.8713 14.8229 53.5251 22.9615C50.5825 26.2103 48.0765 29.8292 46.0706 33.7265C43.4958 33.187 40.872 32.905 38.334 32.1816C38.4811 31.9609 38.7509 31.495 38.8858 31.2621C38.9232 31.2034 38.956 31.1419 38.9838 31.0781L39.1187 30.8207L39.2535 30.5632L39.4007 30.2322C39.4627 30.0896 39.5324 29.9505 39.6091 29.8153L39.744 29.5456C39.744 29.5456 39.8052 29.423 39.8175 29.3739C40.2493 28.4078 40.7706 27.4842 41.3746 26.6153C41.5095 26.4068 41.7916 25.9654 41.9387 25.757C42.2062 25.2445 42.5051 24.749 42.8337 24.2735C46.9602 18.1575 52.282 12.94 58.4784 8.93526C59.2692 8.39053 60.0877 7.88719 60.9306 7.42721C62.8919 6.23825 64.9413 5.20123 67.061 4.32524L67.956 4.34975ZM89.4123 34.2905C87.0705 43.9029 84.8022 53.5153 82.4972 63.1277H96.3396C94.0223 53.5153 91.7541 43.9029 89.4123 34.2905ZM44.8568 88.6546C46.6346 88.7895 48.3755 89.1328 50.1411 89.3289C51.9066 89.5251 53.6109 89.4148 55.3642 89.4025C57.0316 90.7144 58.4784 92.296 60.2685 93.5221C69.019 100.241 79.8175 103.738 90.8453 103.425C101.873 103.113 112.456 99.0091 120.812 91.8056C121.66 90.9398 122.588 90.1558 123.583 89.4638C125.312 89.3534 127.04 89.4638 128.769 89.3412C130.498 89.2186 132.276 88.7895 134.054 88.6546C133.029 90.1494 131.876 91.5523 130.608 92.8478C129.436 94.2731 128.126 95.5791 126.697 96.7467C124.69 98.6341 122.51 100.329 120.187 101.81C119.966 101.933 119.537 102.215 119.329 102.362C118.311 103.012 117.281 103.649 116.214 104.213H116.116L116.006 104.287L115.736 104.41L115.43 104.569L115.123 104.716L114.951 104.777L114.816 104.876L114.547 105.01L114.351 105.108C110.605 107.023 106.64 108.472 102.543 109.424C99.6622 110.233 96.6461 110.356 93.7158 110.92H85.7095C82.5264 110.577 79.3659 110.049 76.2442 109.338C72.2621 108.409 68.4083 106.996 64.7682 105.133C64.7206 105.095 64.6666 105.066 64.6088 105.047L64.3512 104.912L63.9467 104.716L63.6402 104.569L63.395 104.446L63.1252 104.324H63.0394C61.9482 103.735 60.8815 103.098 59.8271 102.399C59.6064 102.264 59.1773 101.97 58.9444 101.847C57.2453 100.762 55.608 99.5833 54.0401 98.316C52.483 96.8202 50.7297 95.5206 49.2952 93.8777C47.7527 92.2491 46.3192 90.5206 45.0039 88.7036L44.8568 88.6546Z" fill="black"/>
<path id="Vector_2" d="M53.9421 23.4764C61.2708 15.3155 71.1934 9.93625 82.0315 8.24857C81.3612 10.7007 80.6786 13.112 79.9839 15.4824C70.1302 17.7882 61.4683 23.6362 55.6462 31.9135C49.8241 40.1908 47.2481 50.3197 48.4087 60.3727C49.5693 70.4258 54.3853 79.7013 61.9403 86.4343C69.4953 93.1673 79.262 96.8877 89.3818 96.8877C99.5016 96.8877 109.268 93.1673 116.823 86.4343C124.378 79.7013 129.194 70.4258 130.355 60.3727C131.515 50.3197 128.939 40.1908 123.117 31.9135C117.295 23.6362 108.633 17.7882 98.7797 15.4824C98.1053 13.0303 97.4187 10.6639 96.7444 8.24857C101.635 8.97599 106.378 10.4784 110.795 12.6992C120.105 17.3613 127.67 24.8918 132.374 34.18C132.791 34.9892 133.196 35.8352 133.6 36.6322C135.029 36.4894 136.449 36.2725 137.855 35.9824C152.516 32.9596 166.41 26.9905 178.695 18.4372V18.9032C176.838 25.1538 173.707 30.9523 169.5 35.9333C167.114 38.7533 164.35 41.229 161.285 43.2898C154.174 48.1941 145.824 51.0631 137.426 52.9267C137.536 54.1528 137.548 55.4402 137.548 56.7153C145.334 55.0846 153.144 52.9635 160.157 49.0891C162.163 47.9814 164.099 46.7531 165.956 45.4109C167.464 44.3319 168.752 42.9587 170.297 41.9656C168.55 48.5123 165.033 54.4513 160.132 59.1306C156.055 62.8829 151.281 65.7988 146.082 67.7132C142.511 69.1127 138.817 70.1718 135.047 70.8764C134.385 72.36 133.919 73.8926 133.245 75.3639C140.052 74.4853 146.675 72.5234 152.862 69.5523C155.123 68.4176 157.281 67.0885 159.311 65.5798C157.484 71.8164 153.385 77.1408 147.823 80.5011C142.475 83.704 136.482 85.6766 130.277 86.2759C128.874 86.523 127.446 86.6053 126.023 86.5211C125.177 87.4775 124.343 88.4461 123.571 89.4269C122.576 90.1189 121.648 90.903 120.8 91.7687C112.444 98.9723 101.861 103.076 90.8333 103.389C79.8055 103.701 69.0069 100.204 60.2564 93.4852C58.5031 92.2591 57.0563 90.6775 55.3521 89.3656C54.4448 88.4706 53.6846 87.4652 52.8999 86.5211C50.3365 86.5254 47.7786 86.2831 45.2615 85.7978C38.1748 84.4491 31.1249 81.6046 25.9877 76.406C22.9606 73.4174 20.7669 69.6896 19.6243 65.592C20.4825 66.107 21.2427 66.72 22.0764 67.284C25.4324 69.3781 29.0255 71.0656 32.78 72.3109C36.9779 73.7903 41.3229 74.8139 45.7397 75.3639C45.0654 73.8926 44.5872 72.36 43.9374 70.8764C39.919 70.1204 35.9846 68.9705 32.1915 67.4434C27.2532 65.5553 22.7182 62.747 18.8273 59.1674C13.9227 54.4913 10.4054 48.5511 8.66324 42.0024C10.5637 43.302 12.1575 45.0063 14.1315 46.1956C22.2113 51.8723 31.8483 54.7781 41.4116 56.703C41.4116 55.4769 41.4116 54.165 41.5342 52.9144C31.7256 50.7688 22.0274 47.2377 14.3154 40.6537C11.2658 38.1367 8.60498 35.1826 6.41943 31.8873C3.76411 27.8359 1.69989 23.4268 0.289062 18.7928V18.3514C10.2668 25.2739 21.3077 30.5211 32.9762 33.8858C37.0365 35.0919 41.1852 35.9774 45.3841 36.5341C45.7519 35.7004 46.1443 34.8544 46.6102 34.082C48.6161 30.1846 51.1221 26.5658 54.0646 23.317L53.9421 23.4764ZM40.1733 30.1217V30.0482C40.1733 30.0482 40.1121 30.1708 40.0998 30.2198L40.1733 30.1217ZM138.627 30.1217V30.1953V30.3056C138.627 30.3056 138.553 30.1585 138.529 30.1217H138.627ZM115.847 104.348H115.945H115.871L115.736 104.41L115.847 104.348ZM114.682 104.912L114.853 104.851L114.547 105.01L114.682 104.912Z" fill="#F40520"/>
<path id="Vector_3" d="M56.2824 31.1028C62.0959 23.2582 70.5018 17.7281 80.0069 15.4948C73.6068 38.1118 67.2148 60.7206 60.8311 83.3212H77.6529C78.3273 80.5135 79.0015 77.7181 79.6635 74.9104H99.195L101.181 83.2354H118.027C111.636 60.6511 105.244 38.0668 98.8516 15.4825C107.465 17.5147 115.194 22.2692 120.893 29.0407C126.591 35.8122 129.955 44.24 130.486 53.0742C131.016 61.9084 128.685 70.6783 123.839 78.0832C118.992 85.4881 111.887 91.1335 103.579 94.1822C95.2705 97.2308 86.2006 97.5203 77.7147 95.0076C69.2288 92.495 61.7789 87.314 56.4698 80.2333C51.1607 73.1525 48.2753 64.549 48.2415 55.699C48.2078 46.849 51.0274 38.2238 56.2824 31.1028ZM89.3864 34.2905C91.7282 43.9029 93.9964 53.5154 96.3137 63.1278H82.4713C84.7763 53.5154 87.0446 43.9029 89.3864 34.2905Z" fill="white"/>
</g>
</svg>
