<svg width="125" height="139" viewBox="0 0 125 139" fill="none" xmlns="http://www.w3.org/2000/svg">
<g id="Group 8">
<path id="Vector" fill-rule="evenodd" clip-rule="evenodd" d="M61.9781 139C76.691 115.153 123.576 120.29 124.03 92.4092C123.968 65.313 104.241 51.4461 120.155 20.0708L98.3312 0C73.2948 12.3833 51.3603 12.6163 26.14 0L3.87444 19.9973C19.8134 51.3848 0.0613037 65.2394 0 92.3356C0.453647 120.253 47.3266 115.116 62.0149 138.926L61.9781 139Z" fill="#EF723B"/>
<path id="Vector_2" fill-rule="evenodd" clip-rule="evenodd" d="M61.9772 133.446C48.4904 112.1 4.14332 117.213 3.75098 91.9312C3.75098 65.8893 23.7115 52.1083 8.07905 21.2235L26.4702 4.26685C36.9408 9.17114 51.6292 13.3643 62.0263 13.2908C72.5092 13.3643 87.1853 9.18341 97.6682 4.3159L116.182 21.2725C100.586 52.1818 120.449 65.9384 120.51 91.9802C120.105 117.262 75.6234 112.149 62.0875 133.495V133.569L61.9772 133.446Z" fill="black"/>
<path id="Vector_3" d="M61.5003 133.74C55.5293 124.324 43.3544 120.094 31.7189 116.072L32.0868 115.03C43.8939 119.125 56.2527 123.404 62.4321 133.139L61.5003 133.74ZM31.7189 116.072C17.1409 111.021 3.39674 106.264 3.17604 91.9432H4.27939C4.50008 105.491 17.8766 110.126 32.0868 115.042L31.7189 116.072ZM3.12695 91.9432C3.12695 82.2818 5.86112 74.3368 8.50944 66.5758L9.56384 66.9313C6.94004 74.6066 4.25497 82.4779 4.23045 91.9432H3.12695ZM8.50944 66.5758C12.9969 53.4077 17.3003 40.8282 7.51624 21.4808L8.49716 20.9903C18.4897 40.7301 14.1248 53.5426 9.56384 66.9313L8.50944 66.5758ZM7.51624 21.4808L7.32018 21.113L7.6267 20.8309L8.0067 21.2355L7.51624 21.4808ZM7.6267 20.8309L26.0178 3.86208L26.7657 4.67129L8.37459 21.6402L7.6267 20.8309ZM26.0178 3.86208L26.2875 3.61687L26.6186 3.77626L26.3855 4.27894L26.0178 3.86208ZM26.6186 3.77626C32.6504 6.52508 38.9161 8.72854 45.3407 10.3603L45.0709 11.427C38.5789 9.7762 32.2477 7.54814 26.1527 4.76938L26.6186 3.77626ZM45.3407 10.3603C50.7611 11.8561 56.3448 12.6796 61.9662 12.8124V13.9159C56.251 13.7966 50.5722 12.973 45.0586 11.4637L45.3407 10.3603ZM62.5058 13.3028V13.8668H61.9785V13.3151L62.5058 13.3028ZM61.4146 13.3028V12.6408H61.9662V13.1803L61.4146 13.3028ZM61.9662 12.7634C67.6315 12.6252 73.2593 11.8018 78.7267 10.3112L78.9964 11.3779C73.4373 12.8894 67.7137 13.7129 61.954 13.8301L61.9662 12.7634ZM78.7267 10.3112C85.1242 8.69731 91.3618 6.50589 97.363 3.76399L97.8289 4.75713C91.7645 7.52895 85.4612 9.74496 78.9964 11.3779L78.7267 10.3112ZM97.363 3.76399L97.694 3.60461L97.9637 3.84983L97.596 4.26669L97.363 3.76399ZM97.9637 3.84983L116.49 20.8187L115.742 21.6279L97.2159 4.65904L97.9637 3.84983ZM116.49 20.8187L116.784 21.1007L116.6 21.4685L116.11 21.2233L116.49 20.8187ZM116.6 21.4685C106.792 40.816 111.132 53.3464 115.619 66.5635L114.565 66.9191C110.016 53.5303 105.651 40.7424 115.619 20.9781L116.6 21.4685ZM115.619 66.5635C118.255 74.3246 120.965 82.2695 120.989 91.931H119.886C119.886 82.4657 117.176 74.5943 114.565 66.9191L115.619 66.5635ZM120.989 91.931C120.769 106.252 106.975 110.996 92.3361 116.06L91.9805 115.018C106.227 110.114 119.665 105.467 119.886 91.9187L120.989 91.931ZM92.3361 116.06C80.6761 120.082 68.4522 124.299 62.469 133.728L61.5371 133.127C67.6675 123.392 80.1366 119.113 91.9805 115.018L92.3361 116.06ZM62.4812 133.716V133.789L61.5371 133.225V133.152L62.4812 133.716ZM62.4812 133.789L62.0153 134.574L61.5371 133.789L62.003 133.507L62.4812 133.789ZM61.5371 133.789V133.716L62.4812 133.152V133.225L61.5371 133.789Z" fill="#FEFEFE"/>
<path id="Vector_4" d="M61.978 129.118C48.9939 108.777 7.16025 115.325 6.80469 91.2445C6.80469 83.6918 8.66832 77.071 10.7894 70.7077C15.6937 56.191 21.9589 42.9249 11.5128 22.4617L27.8564 7.73657C37.9102 12.3589 51.9978 16.4172 62.0148 16.3191C72.0686 16.3804 86.1562 12.3957 96.2101 7.73657L112.603 22.4495C97.62 51.8752 117.249 66.4165 117.311 91.2322C116.918 115.312 75.0603 108.765 62.0517 129.106H61.978V129.118Z" fill="black"/>
<path id="Vector_5" d="M28.4945 22.9644C28.7197 22.945 28.9465 22.9755 29.1584 23.054C29.3704 23.1324 29.5623 23.2567 29.7206 23.4181C30.0881 23.8685 30.2643 24.4453 30.211 25.0242C30.2581 25.5968 30.0873 26.166 29.7328 26.6181C29.5768 26.7831 29.3855 26.9107 29.1732 26.9914C28.9609 27.072 28.733 27.1037 28.5068 27.084H26.5205V27.6235H24.9267V27.084H22.9405C22.7145 27.1011 22.4874 27.0682 22.2755 26.9877C22.0636 26.9072 21.8721 26.781 21.7144 26.6181C21.3653 26.1633 21.1951 25.5962 21.2362 25.0242C21.1919 24.4462 21.3671 23.8727 21.7267 23.4181C21.885 23.2567 22.0769 23.1324 22.2888 23.054C22.5008 22.9755 22.7276 22.945 22.9528 22.9644H24.939V22.4495H26.5328V22.9644H28.4945ZM24.9145 24.2886H23.4676C23.3889 24.2829 23.3098 24.2942 23.2358 24.3217C23.1618 24.3492 23.0945 24.3923 23.0385 24.448C22.9218 24.6311 22.8597 24.8438 22.8597 25.061C22.8597 25.2782 22.9218 25.4909 23.0385 25.6741C23.0976 25.7289 23.1671 25.7712 23.243 25.7986C23.3188 25.826 23.3994 25.8378 23.4799 25.8334H24.9267L24.9145 24.2886ZM26.5083 24.2886V25.8334H27.9674C28.0451 25.8385 28.123 25.8281 28.1967 25.8029C28.2703 25.7776 28.3382 25.738 28.3965 25.6863C28.5288 25.5061 28.5899 25.2835 28.5681 25.061C28.5871 24.8539 28.5352 24.6464 28.421 24.4725C28.3612 24.4135 28.2904 24.3668 28.2125 24.3353C28.1347 24.3037 28.0514 24.2878 27.9674 24.2886H26.5083ZM36.5744 22.4495H38.3767L36.5253 25.7476L35.9123 26.8143C35.752 27.0799 35.5176 27.293 35.2379 27.4273C34.8491 27.5838 34.4301 27.6509 34.0118 27.6235H32.3444V26.2871H34.0855C34.158 26.3043 34.2337 26.3043 34.3062 26.2871C34.3062 26.2871 34.3798 26.2258 34.4165 26.1522L31.0571 22.474H33.2517L35.0908 24.6319C35.1321 24.7353 35.165 24.8419 35.189 24.9507C35.189 25.0242 35.1889 25.0733 35.2625 25.0733C35.2768 24.9963 35.2768 24.9173 35.2625 24.8403C35.2365 24.7356 35.2365 24.6262 35.2625 24.5215L36.5744 22.4495ZM39.0266 23.7982V22.4495H45.157V23.7982H42.8765V27.6235H41.2825V23.7982H39.0266ZM48.0014 25.5637V26.3729H50.76C51.0666 26.3729 51.226 26.2503 51.226 25.9928C51.2348 25.93 51.2283 25.8659 51.207 25.8061C51.1856 25.7463 51.1501 25.6926 51.1034 25.6495C51.0023 25.5822 50.881 25.5519 50.76 25.5637H48.0014ZM46.4076 27.6235V22.4495H52.354V23.6756H48.0014V24.3744H51.2137C51.433 24.3536 51.6543 24.3765 51.8647 24.4418C52.0752 24.507 52.2706 24.6133 52.4398 24.7545C52.5807 24.9069 52.6885 25.087 52.756 25.2833C52.8236 25.4796 52.8495 25.6879 52.8322 25.8947C52.8584 26.1408 52.8314 26.3897 52.7532 26.6245C52.6749 26.8593 52.5472 27.0745 52.3785 27.2557C52.0553 27.5098 51.648 27.6324 51.2382 27.599L46.4076 27.6235ZM61.0468 25.0488C61.0468 26.2748 60.8874 27.0595 60.5932 27.3047C59.6468 27.6762 58.624 27.8109 57.6138 27.6971C56.8188 27.7252 56.0231 27.6841 55.2352 27.5745C55.0358 27.5429 54.848 27.4594 54.6909 27.3325C54.5338 27.2055 54.413 27.0395 54.3402 26.8511C54.2129 26.2593 54.1635 25.6534 54.1931 25.0488C54.1931 23.8227 54.3525 23.0257 54.6468 22.7805C55.5871 22.4025 56.6065 22.2634 57.6138 22.3759C58.6199 22.2685 59.6373 22.403 60.5809 22.7683C60.8874 23.0257 61.0468 23.7859 61.0468 25.0488ZM55.7992 25.0488C55.7992 25.6986 55.8728 26.0909 56.02 26.2013C57.0761 26.4136 58.1639 26.4136 59.22 26.2013C59.3671 26.0909 59.4529 25.6986 59.4529 25.0488C59.4529 24.3989 59.3671 23.9821 59.22 23.8227C58.7017 23.679 58.1619 23.6292 57.626 23.6756C57.0862 23.6296 56.5425 23.6794 56.02 23.8227C55.8728 23.9371 55.7992 24.3458 55.7992 25.0488ZM68.9672 22.4495V27.6235H67.3857V23.7982H64.5411C64.6068 24.8387 64.478 25.8823 64.1611 26.8756C64.0613 27.1134 63.8891 27.3136 63.669 27.4479C63.4489 27.5821 63.1921 27.6436 62.935 27.6235H62.1749V26.2871C62.555 26.2871 62.7755 26.1277 62.8246 25.8089C62.9263 24.6922 62.9632 23.5705 62.935 22.4495H68.9672ZM70.5857 27.6235V22.4495H72.1795V23.6756H74.4846C75.0647 23.6213 75.6488 23.7229 76.1765 23.9698C76.3782 24.1913 76.5289 24.4542 76.6179 24.7402C76.7069 25.0262 76.732 25.3282 76.6915 25.625C76.7345 25.9199 76.7105 26.2208 76.6213 26.5052C76.5322 26.7896 76.3801 27.0503 76.1765 27.2679C75.6533 27.5295 75.0662 27.6358 74.4846 27.5745L70.5857 27.6235ZM72.1795 25.061V26.2871H74.4846C74.636 26.3007 74.7877 26.2617 74.9138 26.1767C74.9769 26.1102 75.0247 26.0309 75.0543 25.9441C75.084 25.8574 75.0945 25.7653 75.0853 25.6741C75.0927 25.5848 75.0814 25.4951 75.0518 25.4106C75.0222 25.3261 74.9752 25.2487 74.9138 25.1836C74.7912 25.0903 74.6379 25.0465 74.4846 25.061H72.1795ZM77.9176 22.4495H79.5116V24.2518H82.9568V22.4495H84.5507V27.6113H82.9568V25.6005H79.5116V27.6113H77.9176V22.4495ZM92.9493 22.4495H94.531V27.6235H92.9493V22.4495ZM85.9851 27.6235V22.4495H87.5668V23.6756H89.8718C90.4495 23.6152 91.0324 23.7216 91.5516 23.9821C91.7544 24.2002 91.9059 24.461 91.995 24.7452C92.0841 25.0295 92.1086 25.3301 92.0666 25.625C92.106 25.9189 92.0815 26.2179 91.9947 26.5014C91.908 26.785 91.7609 27.0464 91.5638 27.2679C91.0402 27.5282 90.4535 27.6344 89.8718 27.5745L85.9851 27.6235ZM87.5668 25.061V26.2871H89.8718C90.0233 26.3007 90.1748 26.2617 90.3009 26.1767C90.363 26.1121 90.4105 26.0348 90.4401 25.9502C90.4697 25.8656 90.4808 25.7756 90.4726 25.6863C90.4824 25.5979 90.4733 25.5085 90.4458 25.4239C90.4183 25.3393 90.3731 25.2616 90.3132 25.1959C90.2522 25.1454 90.1818 25.1075 90.1061 25.0844C90.0303 25.0612 89.9507 25.0533 89.8718 25.061H87.5668ZM95.7693 22.4495H97.3631V26.0174C97.3631 26.14 97.2896 26.2871 97.2406 26.4097V26.5568C97.2406 26.5568 97.2405 26.5568 97.3386 26.4587C97.3745 26.4011 97.4034 26.3394 97.4245 26.2748L100.146 22.4495H102.758V27.6235H101.213V24.0556C101.213 24.0556 101.213 23.9085 101.336 23.651C101.33 23.6022 101.33 23.5528 101.336 23.5039C101.336 23.5039 101.336 23.5039 101.238 23.602C101.204 23.665 101.175 23.7306 101.152 23.7982L98.4175 27.6235H95.806L95.7693 22.4495ZM100.674 21.4441H98.111V22.1552H100.674V21.4441ZM47.0573 29.4381H48.6512V31.2527H49.485L51.2873 29.4381H53.4819L50.8949 31.8902L53.813 34.6121H51.5079L49.485 32.5768H48.6512V34.6121H47.0573V29.4381ZM61.6721 29.4381V34.6244H60.0782V30.7745H57.246C57.3102 31.8199 57.177 32.868 56.8536 33.8642C56.7558 34.1043 56.5845 34.3071 56.3642 34.4437C56.1439 34.5803 55.886 34.6435 55.6275 34.6244H54.8674V33.2757C54.9423 33.288 55.0189 33.2853 55.0928 33.2679C55.1666 33.2504 55.2363 33.2186 55.2978 33.1742C55.3593 33.1297 55.4115 33.0736 55.4512 33.009C55.491 32.9443 55.5176 32.8725 55.5295 32.7975C55.6241 31.6804 55.6568 30.5589 55.6275 29.4381H61.6721ZM68.3052 29.4381H70.0953L68.2439 32.724C67.8883 33.3738 67.6921 33.7171 67.6308 33.7907C67.4653 34.0506 67.2377 34.2655 66.9687 34.416C66.5782 34.5672 66.1612 34.6381 65.7426 34.6244H64.0997V33.2757H65.8285H66.0492C66.0977 33.2419 66.1361 33.1952 66.1596 33.1408L62.7879 29.4626H65.007L66.8461 31.6205L66.9443 31.927C66.9443 32.0129 66.9443 32.0496 66.9443 32.0496C66.9443 32.0496 66.9443 31.9761 66.9443 31.8289C66.9469 31.7188 66.9718 31.6103 67.0178 31.5102L68.3052 29.4381ZM72.5597 32.5523V33.3615H75.4655C75.772 33.3615 75.9191 33.2267 75.9191 32.9815C75.9191 32.7362 75.9192 32.6872 75.8088 32.6382C75.7031 32.5708 75.578 32.5407 75.4532 32.5523H72.5597ZM70.9657 34.6244V29.4381H76.9V30.6642H72.5597V31.363H75.772C76.2147 31.3238 76.6552 31.4603 76.9981 31.7431C77.2718 32.0621 77.4085 32.4764 77.3782 32.8956C77.4019 33.1387 77.3749 33.3841 77.2989 33.6163C77.2229 33.8484 77.0996 34.0623 76.9367 34.2443C76.6087 34.4994 76.1989 34.6258 75.7843 34.5999L70.9657 34.6244Z" fill="#FEFEFE"/>
<path id="Vector_6" d="M61.9767 129.118C55.8464 119.505 43.3526 115.827 31.7171 112.149H92.3466C80.6989 115.827 68.2051 119.505 62.0625 129.118H61.9767ZM28.321 111.058C25.3454 110.116 22.4194 109.023 19.5546 107.784H104.521C101.657 109.023 98.7308 110.116 95.7551 111.058H28.321ZM16.5629 106.325C15.0085 105.502 13.5385 104.529 12.1736 103.419H111.915C110.548 104.526 109.078 105.499 107.525 106.325H16.5629ZM10.2119 101.592C9.4916 100.809 8.847 99.9594 8.28689 99.0545H115.789C115.237 99.9619 114.597 100.812 113.876 101.592H10.2119ZM7.17127 96.8598C6.88758 96.1592 6.65797 95.4377 6.4846 94.7019H117.604C117.425 95.4362 117.195 96.1572 116.917 96.8598H7.17127ZM6.06778 92.1272C6.06778 91.6613 6.0064 91.1954 5.99414 90.7172V90.3494H118.082C118.088 90.4719 118.088 90.5947 118.082 90.7172C118.082 91.1954 118.082 91.6613 118.008 92.1272H6.06778ZM6.06778 87.3945C6.06778 86.9164 6.14131 86.4505 6.19035 85.9846H117.763C117.763 86.4505 117.849 86.9164 117.886 87.3945H6.06778ZM6.63172 82.6619C6.63172 82.3063 6.75435 81.963 6.80339 81.6197H117.15L117.334 82.6619H6.63172ZM7.60037 77.917C7.60037 77.6963 7.71073 77.4756 7.77204 77.2549H116.218C116.218 77.4756 116.329 77.6963 116.39 77.917H7.60037ZM8.92448 73.1844C8.92448 73.0863 8.92456 72.9882 9.01038 72.9023H114.98C114.98 72.9882 114.98 73.0863 115.066 73.1844H8.92448Z" fill="#EF723B"/>
<path id="Vector_7" d="M42.019 101.323C40.9131 96.6859 41.4497 91.8091 43.5372 87.5237C45.6248 83.2382 49.134 79.8095 53.4668 77.8219C57.7995 75.8344 62.6875 75.4111 67.2974 76.6243C71.9073 77.8375 75.9537 80.612 78.7468 84.4748C81.5399 88.3376 82.9068 93.0496 82.6145 97.8075C82.3221 102.565 80.3886 107.075 77.1435 110.566C73.8985 114.058 69.5428 116.316 64.819 116.956C60.0953 117.596 55.2959 116.577 51.2391 114.074C48.9391 112.659 46.9407 110.805 45.3585 108.617C43.7764 106.429 42.6416 103.95 42.019 101.323ZM44.8022 85.9478C42.3526 89.9302 41.3589 94.6386 41.9904 99.2713C42.6219 103.904 44.8395 108.175 48.2657 111.356C51.6919 114.538 56.1148 116.433 60.7815 116.72C65.4482 117.008 70.0702 115.668 73.8606 112.931C77.6509 110.193 80.3753 106.227 81.5699 101.706C82.7646 97.1861 82.3557 92.3915 80.4127 88.1388C78.4697 83.8861 75.1129 80.4382 70.9136 78.3823C66.7144 76.3263 61.9324 75.7892 57.3818 76.8626C54.7905 77.4751 52.3456 78.5929 50.187 80.1519C48.0284 81.7109 46.1985 83.6805 44.8022 85.9478Z" fill="black"/>
<path id="Vector_8" d="M44.8145 85.9476C42.3648 89.93 41.3712 94.6384 42.0027 99.2711C42.6342 103.904 44.8518 108.174 48.2779 111.356C51.7041 114.537 56.127 116.433 60.7937 116.72C65.4604 117.007 70.0825 115.668 73.8728 112.931C77.6632 110.193 80.3875 106.227 81.5822 101.706C82.7768 97.1859 82.3679 92.3913 80.4249 88.1386C78.482 83.8859 75.1251 80.438 70.9259 78.3821C66.7266 76.3261 61.9447 75.789 57.394 76.8624C54.8027 77.4749 52.3577 78.5927 50.1991 80.1517C48.0404 81.7107 46.2107 83.6803 44.8145 85.9476Z" fill="#FEFEFE"/>
<path id="Vector_9" d="M79.8535 106.521C78.4761 109 76.597 111.165 74.336 112.877C72.0751 114.589 69.482 115.811 66.7223 116.465C65.9153 116.656 65.0959 116.792 64.2701 116.869L62.1859 112.431C62.284 111.916 62.3574 111.413 62.4065 110.935L60.4939 116.943C56.7502 116.674 53.1533 115.377 50.0997 113.195C47.046 111.012 44.654 108.029 43.1871 104.574C41.7202 101.12 41.2354 97.3269 41.7861 93.6142C42.3368 89.9014 43.9016 86.4128 46.3081 83.5325L48.0738 85.7639C44.6653 88.2161 44.3097 95.9771 48.8094 101.237C49.3611 106.914 53.6401 113.203 62.4679 110.347C62.619 108.207 62.5943 106.058 62.3942 103.922C63.5345 113.62 71.7247 116.183 79.8046 106.521H79.8535ZM67.8626 97.522L66.3055 92.2621C68.8764 95.4883 72.2627 97.9687 76.1141 99.4469C73.4167 98.9442 70.6702 98.3189 67.8993 97.522H67.8626ZM58.8019 91.6981C56.6475 89.3199 54.6644 86.792 52.8676 84.1332C54.8863 86.0746 57.2205 87.6584 59.7704 88.8168L66.4894 89.1234L58.8019 91.6981Z" fill="#EBEBEB"/>
<path id="Vector_10" d="M65.0555 116.783C62.9528 117.101 60.8129 117.08 58.7167 116.722C57.6716 115.896 56.758 114.916 56.0071 113.816C54.5099 113.36 53.0945 112.669 51.8139 111.769C50.6739 110.951 49.6793 109.948 48.8714 108.802C47.5804 108.825 46.2999 108.565 45.1196 108.041C43.727 105.989 42.7213 103.7 42.1524 101.286C41.8993 100.218 41.7354 99.1315 41.6621 98.0367C42.0942 96.8807 42.8212 95.8578 43.7709 95.0696C43.8937 93.7085 44.1776 92.3668 44.6168 91.0726C45.0343 89.8531 45.5811 88.6816 46.2476 87.5783C45.9693 86.4559 45.8414 85.3014 45.8675 84.1453C47.9465 81.4377 50.669 79.2925 53.7878 77.9046C54.8923 77.9647 55.9865 78.1498 57.0492 78.4563C58.414 78.1943 59.8072 78.1119 61.1934 78.2111C62.4544 78.2847 63.7109 78.4238 64.9575 78.628C66.4103 78.0736 67.9327 77.7229 69.4817 77.5858C71.7296 78.4831 73.804 79.7652 75.612 81.3744C76.3345 83.0006 76.7184 84.7568 76.7401 86.5361C77.2633 87.5224 77.73 88.5376 78.1378 89.5768C78.5302 90.6067 78.8734 91.6489 79.1799 92.7156C80.4425 94.2214 81.5285 95.8669 82.4168 97.6199C82.2648 100.577 81.4786 103.466 80.1118 106.092C78.9308 106.548 77.6934 106.84 76.4335 106.963L75.8817 107.478C73.9347 109.455 71.7378 111.17 69.3468 112.578C68.3857 114.101 67.1362 115.421 65.6686 116.465L65.0555 116.783ZM62.5054 110.187C62.6005 109.205 62.6414 108.219 62.6279 107.232C62.6279 106.178 62.5175 105.136 62.4072 104.094H62.5543C62.6769 105.136 62.7505 106.178 62.7751 107.245C62.7929 108.202 62.7561 109.16 62.6648 110.114C64.5897 111.07 66.4656 112.934 69.3836 112.382C71.7413 110.976 73.9122 109.279 75.8451 107.33C76.0044 107.159 76.1882 106.999 76.3354 106.852C76.7147 104.392 76.5346 101.877 75.8082 99.4958C74.7192 99.3543 73.6387 99.1537 72.5714 98.895C71.5292 98.6375 70.4992 98.331 69.5797 98.0122C68.562 99.6184 65.3988 101.936 62.444 104.143C59.2483 102.945 56.4267 100.923 54.266 98.2819L49.0552 101.494C48.4384 103.848 48.3838 106.313 48.8958 108.691C49.7112 109.884 50.7326 110.922 51.9121 111.756C53.1198 112.612 54.4512 113.277 55.86 113.73C58.3066 113.121 60.5829 111.964 62.5175 110.347L62.5054 110.187ZM43.9303 95.0696C44.8008 97.5218 47.2653 99.4958 49.0063 101.2L54.2294 97.9877C54.8669 94.8244 55.0385 92.2006 57.0738 89.6504C56.4608 88.976 55.8478 88.2772 55.3083 87.5783C54.4991 86.5852 53.7388 85.5675 53.04 84.5499C50.5422 84.9345 48.2089 86.0331 46.3211 87.7132C45.6938 88.7857 45.188 89.9248 44.8131 91.1094C44.3648 92.3842 44.0806 93.7108 43.9671 95.0574L43.9303 95.0696ZM57.1964 78.5789C55.4177 80.2312 54.0563 82.2817 53.2239 84.5622C53.9105 85.5676 54.6462 86.5484 55.4432 87.517C55.9949 88.2159 56.5833 88.8902 57.1841 89.5768C57.2127 89.529 57.2456 89.4839 57.2823 89.442C60.2358 88.6587 63.3151 88.467 66.343 88.8779C67.8819 91.6737 68.9857 94.6877 69.6165 97.816C70.5361 98.1348 71.566 98.4413 72.6082 98.6988C73.6742 98.9607 74.7551 99.1572 75.8451 99.2873C77.6161 97.5878 78.7646 95.3424 79.1063 92.9117C78.7998 91.8083 78.4319 90.7048 78.0151 89.6259C77.6566 88.6568 77.2474 87.7074 76.789 86.7814C74.5907 85.5105 72.1357 84.748 69.6042 84.5499C69.1628 85.0771 68.7582 85.6043 68.3782 86.1561C67.7161 87.0634 67.0908 87.9952 66.5145 88.9025L66.3797 88.8167C66.9682 87.8971 67.6058 86.9653 68.2556 86.058C68.6479 85.5308 69.0525 85.0036 69.4817 84.4763C68.7005 82.2082 67.2462 80.2322 65.313 78.8119C63.952 78.6035 62.6033 78.4318 61.2914 78.3582C59.9551 78.2689 58.6129 78.343 57.2946 78.5789H57.1964Z" fill="black"/>
<path id="Vector_11" d="M24.7305 83.0296L24.4362 83.0173L24.142 82.9805L23.8477 82.9437L23.5535 82.907L23.2592 82.8702L22.9772 82.8211L22.6952 82.7598L22.4132 82.6985L22.1312 82.6372L21.8492 82.5636L21.5795 82.4778L19.2132 81.7299L19.1396 67.7772L20.8071 69.0401L18.9925 65.5703L18.8944 65.3864L18.8208 65.227L18.7473 65.0798H15.8047V55.0383H36.7951V49.2144H48.0259L48.737 49.2267L49.4482 49.2512L50.1348 49.2757L50.8091 49.3248L51.4467 49.3738L52.0842 49.4474L52.6973 49.5332L53.298 49.6313L53.8743 49.7416L54.4383 49.8765L54.9777 50.0236L55.505 50.1953L56.0322 50.3792L56.5349 50.5876L57.013 50.8206L57.5035 51.0903L58.0062 51.4091L58.5088 51.7892L58.9748 52.1815L59.4039 52.6229L59.8085 53.0888L60.164 53.5915L60.3725 53.9348L61.1939 51.3233H60.2867V41.2695H77.7705L79.6586 48.0987L82.7483 48.8957L82.7728 48.7608L82.7974 48.5401L82.8342 48.2949L82.8709 48.0251L82.8955 47.7186L82.92 47.3998L82.9445 47.0565L82.969 46.6765L82.9813 46.2841L83.0058 45.8673L83.0181 45.4259V44.96L83.0303 44.4695L83.0426 43.9668V43.6726H80.5536V33.6188H105.933V43.6726H103.984V51.0903H105.97V61.1441H89.8963V59.9303L89.7615 60.0407L89.4059 60.3104L89.0258 60.5434L88.6212 60.7641L88.2166 60.9602L87.812 61.1319L87.3829 61.279L86.9538 61.4016L86.5124 61.4997L86.0832 61.5733L85.6296 61.6223L85.1882 61.6468L84.8326 61.6591V68.7826H56.3387V67.9488L56.1793 68.0101L55.5908 68.2063L54.9777 68.378L54.3524 68.5251L53.7517 68.6477V76.7398H36.7951V73.1474L36.746 73.2577L36.464 73.9689L36.182 74.6432L35.9 75.293L35.6058 75.9306L35.3238 76.5191L35.0418 77.0831L34.7598 77.6226L34.4655 78.1375L34.1713 78.6279L33.8648 79.0816L33.5582 79.5353L33.2395 79.9521L32.8962 80.3567L32.5283 80.7245L32.1973 81.0311L31.854 81.3131L31.4984 81.5828L31.1183 81.8157L30.726 82.0242L30.3214 82.2203L29.9168 82.4043L29.4877 82.5514L29.0831 82.674L28.6417 82.7843L28.2126 82.8702L27.7712 82.9437L27.3298 83.005L26.8761 83.0418L26.4225 83.0663H25.9811H25.6501L25.3435 83.0541H25.037L24.7305 83.0296Z" fill="black" stroke="#EF723B" stroke-width="1.05" stroke-miterlimit="10"/>
<path id="Vector_12" d="M39.3554 62.0272C38.2642 62.0272 37.6144 62.2846 37.3569 62.7873C37.0994 63.29 36.9278 64.0134 36.7439 64.5038L34.4511 70.6342C32.9635 74.6721 31.6065 77.2918 30.3805 78.4933C29.776 79.0173 29.0735 79.4161 28.3137 79.6666C27.5539 79.917 26.752 80.0142 25.9544 79.9524C24.7086 79.9786 23.4668 79.8047 22.2761 79.4374V73.8711C22.7142 74.2179 23.2131 74.4799 23.7474 74.6435C24.0261 74.7253 24.3152 74.7666 24.6057 74.7661C25.0287 74.7754 25.4482 74.6873 25.8318 74.5086C26.1968 74.2713 26.4762 73.9232 26.6288 73.5155L21.7245 64.1238L21.1114 62.8977C20.9654 62.6128 20.7415 62.3752 20.4659 62.2124C20.1903 62.0497 19.8742 61.9684 19.5543 61.9781H18.8799V58.0302H29.3506V61.9781H28.9704C28.8118 61.9723 28.6536 61.9972 28.5045 62.0517C28.3697 62.0517 28.2962 62.2479 28.2962 62.5054C28.2991 62.6908 28.3498 62.8724 28.4433 63.0326C28.5291 63.2042 28.5905 63.3391 28.6395 63.4126L30.8341 67.6671L32.2809 63.8172C32.4035 63.4617 32.4893 63.1674 32.5629 62.9222C32.6224 62.7767 32.6635 62.6243 32.6855 62.4686C32.6977 62.3906 32.6867 62.3106 32.6541 62.2387C32.6214 62.1668 32.5683 62.1061 32.5015 62.064C32.2632 61.9929 32.0143 61.9639 31.7659 61.9781H31.3982V58.0302H39.3798L39.3554 62.0272ZM58.715 59.4892C58.779 60.3578 58.6471 61.2297 58.3287 62.0403C58.0104 62.851 57.5138 63.5798 56.8759 64.1728C55.4291 65.3907 52.6255 65.9996 48.4651 65.9996V68.5376C48.4651 69.0894 48.5387 69.4327 48.6981 69.5553C48.9639 69.7006 49.2666 69.7646 49.5686 69.7392H50.6966V73.6872H39.9071V69.7392H41.0595C41.3272 69.765 41.5964 69.7094 41.832 69.5798C41.9525 69.4368 42.0421 69.2704 42.0949 69.091C42.1477 68.9115 42.1624 68.7231 42.1385 68.5376V57.4049C42.1588 57.0928 42.0999 56.7807 41.967 56.4976C41.8566 56.3137 41.5499 56.2156 41.0595 56.2156H39.9071V52.2676H48.0728C51.7346 52.2676 54.3747 52.7458 55.9932 53.7021C57.8486 54.8056 58.7764 56.7346 58.7764 59.4892H58.715ZM51.7999 59.0846C51.8408 58.7081 51.782 58.3275 51.6292 57.981C51.4764 57.6345 51.235 57.3343 50.9295 57.1106C50.1716 56.7253 49.3266 56.5436 48.4773 56.5834V61.6839C49.3595 61.7497 50.2409 61.5443 51.0031 61.0954C51.2909 60.8509 51.5148 60.5401 51.6558 60.1898C51.7968 59.8395 51.8504 59.4603 51.8122 59.0846H51.7999ZM81.7775 65.7299H71.5642V61.7819H72.2877C72.502 61.7875 72.7161 61.7669 72.9253 61.7207C73.0479 61.7207 73.1214 61.5367 73.1214 61.2915C73.1322 61.1978 73.1322 61.1032 73.1214 61.0096C73.0478 60.7398 72.9742 60.4823 72.9374 60.2861H66.611C66.5824 60.4191 66.5454 60.5501 66.5006 60.6785C66.4676 60.7868 66.4431 60.8975 66.4271 61.0096C66.4124 61.1271 66.4283 61.2465 66.4735 61.3561C66.5186 61.4656 66.5913 61.5617 66.6845 61.6348C66.8761 61.7386 67.092 61.7894 67.3098 61.7819H67.6163V65.7299H59.414V61.7819H59.9044C60.1343 61.805 60.3664 61.7713 60.5802 61.6836C60.794 61.596 60.983 61.4571 61.1305 61.2793C61.506 60.6393 61.7907 59.9502 61.9764 59.2317L64.9558 49.7419C65.0665 49.4153 65.1445 49.0785 65.1887 48.7365C65.1883 48.6674 65.167 48.5999 65.1277 48.543C65.0883 48.4861 65.0326 48.4425 64.968 48.4178C64.6216 48.3186 64.2606 48.2812 63.9013 48.3074H63.3864V44.3594H75.4632L79.779 60.0287C79.8675 60.3907 79.978 60.7469 80.1101 61.0954C80.2118 61.3308 80.3848 61.5285 80.6047 61.6604C80.8247 61.7924 81.0805 61.852 81.3362 61.831H81.8021L81.7775 65.7299ZM71.6502 55.9213L69.9336 49.791H69.7865L67.9228 55.9213H71.6502ZM102.903 58.0302H92.9348V54.0822H93.3027C93.5846 54.1058 93.8678 54.0551 94.124 53.9351C94.3938 53.7634 94.5287 53.4079 94.5287 52.8316V40.9265H91.0711C91.1609 44.8568 90.9024 48.7874 90.2987 52.6722C90.1043 54.165 89.5395 55.5854 88.6558 56.8041C88.1872 57.3827 87.5889 57.843 86.9095 58.1475C86.23 58.4521 85.4883 58.5925 84.7445 58.5574C84.4125 58.5594 84.0808 58.5389 83.7515 58.4961C83.1295 58.375 82.5271 58.1687 81.9615 57.883V51.7527C82.1209 51.7527 82.3905 51.863 82.7829 51.9366C83.0521 52.0036 83.3273 52.0447 83.6044 52.0592C84.6465 52.0592 85.3453 51.2622 85.6886 49.607C86.0103 47.5226 86.1418 45.4132 86.0811 43.305V42.2997C86.1154 41.819 86.0571 41.3361 85.9094 40.8774C85.7868 40.6199 85.3944 40.4973 84.6833 40.4973H83.543V36.5371H102.817V40.4973H102.081C101.493 40.4973 101.113 40.6567 100.953 40.9755C100.871 41.2327 100.838 41.503 100.855 41.7724V52.7335C100.855 53.2975 100.953 53.6531 101.149 53.8002C101.431 53.9648 101.757 54.0377 102.081 54.0087H102.841L102.903 58.0302Z" fill="#FEFEFE" stroke="#EF723B" stroke-width="1.67" stroke-miterlimit="10"/>
</g>
</svg>
