<svg width="61" height="61" viewBox="0 0 61 61" fill="none" xmlns="http://www.w3.org/2000/svg">
<mask id="mask0_4_14772" style="mask-type:alpha" maskUnits="userSpaceOnUse" x="0" y="0" width="61" height="61">
<rect x="0.210693" y="0.416504" width="60" height="60" fill="#D9D9D9"/>
</mask>
<g mask="url(#mask0_4_14772)">
<path fill-rule="evenodd" clip-rule="evenodd" d="M55.6197 19.7243L57.5834 19.1555L59.6645 18.557L60.2107 18.3979L59.6645 18.2497L57.5834 17.6512L55.5022 17.05L55.2892 16.9879V19.8187V22.3205C54.9048 21.9255 54.4933 21.5571 54.0575 21.2179C51.0532 18.8266 46.1045 16.8801 39.4651 15.9419V12.3428L41.4315 11.774L43.5126 11.1782L44.0397 11.0164L43.5126 10.8681L41.4315 10.2696L39.3477 9.66844L39.1346 9.60913V12.4372V15.8853C38.4409 15.7909 37.7308 15.7074 36.9962 15.6346L37.0153 15.5968C35.5377 15.4755 34.1094 15.3973 32.7165 15.3596C32.4434 15.3596 32.1703 15.338 31.9163 15.3326H31.7797C31.2553 15.3218 30.7392 15.3165 30.2312 15.3165H30.1902C29.6822 15.3165 29.166 15.3218 28.6417 15.3326H28.5078C28.2347 15.3326 27.9753 15.3488 27.7076 15.3596C26.312 15.3973 24.8864 15.4755 23.4088 15.5968L23.4252 15.6346C22.6906 15.7074 21.9805 15.7909 21.2868 15.8853V9.95421V9.60913L21.0737 9.66844L18.9926 10.2696L16.9088 10.8681L16.3844 11.0164L16.9088 11.1782L18.9926 11.7821L20.9563 12.3509V15.9338C14.3197 16.872 9.35995 18.8185 6.36391 21.2098C5.92993 21.553 5.51937 21.924 5.1349 22.3205V17.3438V16.9879L4.92188 17.05L2.83803 17.6512L0.756918 18.2523L0.210693 18.4006L0.756918 18.5597L2.83803 19.1582L4.80444 19.727V22.671C3.75755 23.7758 3.07723 25.1697 2.85442 26.6664C2.58131 28.6398 3.29686 30.6483 5.03932 32.5112C5.60079 33.0997 6.21608 33.6358 6.87736 34.1126V44.732C8.83415 46.0916 10.9382 47.2318 13.1507 48.1316C15.5268 49.121 19.0363 50.5444 21.9559 51.2238L21.9395 49.4121V45.0986C23.4485 44.5852 25.0199 44.2715 26.6124 44.1658C26.678 44.1658 26.7517 44.1496 26.8255 44.1443C27.8824 44.0715 29.0104 44.0499 30.2284 44.0822C31.4411 44.0499 32.5736 44.0706 33.626 44.1443C33.697 44.1443 33.7707 44.1443 33.8363 44.1658C35.4297 44.2718 37.0019 44.5855 38.5119 45.0986V49.4121L38.4955 51.2238C41.4151 50.5444 44.9246 49.121 47.3034 48.1316C49.5064 47.231 51.6013 46.0917 53.5495 44.7347V34.1126C54.211 33.6391 54.8255 33.1047 55.3848 32.5166C57.1382 30.6537 57.8428 28.6452 57.5697 26.6718C57.3464 25.1745 56.6662 23.7798 55.6197 22.6737V19.7243ZM53.0879 23.4744L43.2559 29.605C41.4643 28.2031 38.5993 27.0789 34.7894 26.564L39.3313 18.2065C45.3397 19.0746 49.786 20.8108 52.457 22.9379C52.6837 23.1212 52.8913 23.2965 53.0879 23.4744ZM27.2133 17.6619C27.4427 17.6619 27.6721 17.6404 27.907 17.6404C28.2484 17.6242 28.5843 17.6188 28.9148 17.6134C29.3299 17.6134 29.7341 17.6134 30.141 17.6134H30.2803C30.6955 17.6134 31.0997 17.6134 31.5066 17.6134C31.848 17.6134 32.1839 17.6134 32.5144 17.6404C32.7438 17.6404 32.9732 17.6404 33.2081 17.6619C34.8768 17.7293 36.4527 17.8507 37.9466 18.0286L33.3993 26.4103C33.351 26.3987 33.3015 26.3924 33.2518 26.3914L33.2764 26.3429C32.2112 26.2755 31.1925 26.2485 30.2148 26.2593C29.2371 26.2701 28.2101 26.2755 27.1477 26.3429L27.1696 26.3914C27.1208 26.3922 27.0722 26.3985 27.0248 26.4103L22.4748 18.0286C23.9687 17.8507 25.5528 17.7293 27.2133 17.6619ZM21.0792 18.2011L25.621 26.5586C21.8221 27.0735 18.9598 28.1977 17.1682 29.5996L7.33619 23.469C7.5301 23.2911 7.73766 23.1158 7.95342 22.9298C10.6245 20.8189 15.0625 19.0827 21.071 18.2146L21.0792 18.2011ZM6.44311 24.4315L16.1987 30.5135C14.6146 32.3144 14.6201 34.42 16.5073 36.2775C11.6814 34.9295 8.88474 33.1097 6.89102 31.0069C4.75801 28.7342 4.83721 26.448 6.44311 24.4315ZM13.8772 42.0495C11.9165 41.2295 10.0196 40.2681 8.20196 39.1729V34.9888C9.99516 36.0474 11.8977 36.9141 13.8772 37.5742V42.0495ZM8.20196 44.0418V40.6692C10.0409 41.694 11.9355 42.6183 13.8772 43.4379V47.0262C13.8008 46.9966 13.7188 46.9669 13.6451 46.9346C11.7344 46.1585 9.91024 45.1891 8.20196 44.0418ZM15.1854 47.5196V43.9798C16.9463 44.7032 18.7616 45.29 20.6149 45.7349V49.0967C18.7441 48.6357 16.8405 48.1019 15.1854 47.5196ZM33.7052 42.8394C32.5745 42.7639 31.5012 42.7235 30.3268 42.7531H30.1028C28.9257 42.7235 27.8469 42.7531 26.7162 42.8394C24.5723 43.0012 22.6359 43.6859 20.7842 43.9178C18.874 43.6791 16.9992 43.2176 15.1991 42.5429V38.0002C18.4764 39.022 20.4838 40.6961 30.2203 40.6961C39.5061 40.6961 41.9641 39.0112 45.2414 38.0002V42.559C43.4362 43.2313 41.557 43.691 39.6426 43.9286C37.7855 43.6859 35.8491 43.0012 33.7052 42.8394ZM39.8065 45.7349C41.6591 45.2876 43.4742 44.7008 45.236 43.9798V47.5196C43.5809 48.1019 41.6855 48.6357 39.8065 49.0967V45.7349ZM46.7763 46.9346C46.7026 46.9669 46.6206 46.9966 46.5469 47.0262V43.4379C48.4881 42.6173 50.3827 41.693 52.2222 40.6692V44.0418C50.5133 45.1896 48.6882 46.1591 46.7763 46.9346ZM52.2222 39.1702C50.4048 40.2659 48.5079 41.2273 46.5469 42.0468V37.5715C48.5272 36.911 50.4298 36.0424 52.2222 34.9807V39.1702ZM53.5358 31.0069C51.5448 33.1097 48.7345 34.9457 43.9086 36.2829C45.8013 34.42 45.8068 32.3144 44.2227 30.5135L53.9865 24.4261C55.5896 26.4426 55.6634 28.7369 53.5358 31.0069Z" fill="black"/>
</g>
</svg>
