<?xml version="1.0" standalone="no"?>
<!DOCTYPE svg PUBLIC "-//W3C//DTD SVG 20010904//EN"
 "http://www.w3.org/TR/2001/REC-SVG-20010904/DTD/svg10.dtd">
<svg version="1.0" xmlns="http://www.w3.org/2000/svg"
 width="700.000000pt" height="700.000000pt" viewBox="0 0 700.000000 700.000000"
 preserveAspectRatio="xMidYMid meet">
<metadata>
Created by potrace 1.14, written by Peter Selinger 2001-2017
</metadata>
<g transform="translate(0.000000,700.000000) scale(0.100000,-0.100000)"
fill="#000000" stroke="none">
<path d="M2320 5862 c-63 -18 -184 -53 -269 -78 -85 -24 -156 -45 -158 -48 -3
-3 30 -13 362 -110 l150 -43 0 -203 c0 -111 -2 -203 -6 -205 -7 -5 -52 -13
-104 -20 -22 -3 -47 -7 -55 -9 -8 -1 -33 -6 -55 -10 -539 -99 -959 -248 -1290
-455 -55 -35 -101 -67 -103 -72 -2 -5 -10 -9 -17 -9 -7 0 -15 -3 -17 -8 -1 -4
-16 -18 -33 -30 -16 -13 -54 -46 -82 -74 l-53 -50 0 307 c0 287 -1 306 -17
301 -10 -3 -128 -37 -263 -76 -296 -85 -281 -80 -255 -90 11 -5 63 -20 115
-35 52 -15 159 -45 238 -67 l142 -40 0 -174 c0 -107 -4 -175 -10 -179 -19 -11
-86 -109 -122 -175 -145 -270 -122 -570 65 -822 76 -103 135 -165 227 -239
l80 -64 0 -610 0 -610 80 -52 c207 -136 428 -249 715 -367 385 -158 656 -254
862 -305 l72 -18 0 331 c-1 182 -1 340 0 352 1 17 14 25 74 42 170 49 329 76
507 87 121 8 629 8 730 0 47 -4 101 -8 120 -9 98 -8 253 -38 378 -73 l93 -26
-1 -316 c0 -174 0 -333 0 -354 0 -21 4 -36 8 -33 5 3 19 7 33 9 100 19 429
129 689 231 451 178 628 264 885 431 l110 71 0 608 0 608 60 48 c88 70 213
204 269 288 41 62 123 232 112 232 -2 0 2 19 9 43 19 63 19 220 0 302 -31 133
-93 262 -173 357 l-39 46 0 169 -1 169 216 63 c120 35 237 69 262 76 52 14 53
14 -90 54 -58 16 -175 49 -260 74 -85 25 -157 44 -160 42 -3 -2 -5 -138 -5
-304 0 -337 8 -309 -69 -237 -172 159 -469 324 -791 439 -179 64 -477 147
-585 163 -19 3 -43 7 -52 10 -10 3 -28 7 -40 9 -13 2 -50 9 -83 14 -33 6 -78
13 -100 17 -22 3 -47 8 -55 9 -8 2 -21 4 -27 4 -10 1 -13 50 -13 209 l0 209
43 10 c38 10 190 53 312 89 28 8 57 17 65 19 8 2 35 10 59 17 l45 14 -110 31
c-60 17 -185 54 -279 80 l-170 49 -3 -358 c-2 -301 -5 -358 -16 -358 -13 0
-41 3 -211 26 -94 12 -238 21 -455 30 -117 5 -596 4 -705 -1 -158 -6 -325 -16
-342 -19 -10 -2 -49 -7 -88 -10 -38 -4 -97 -11 -130 -16 -114 -18 -102 -61
-102 345 0 195 -2 356 -4 358 -2 2 -56 -12 -119 -31z m1660 -896 c36 -3 90 -8
120 -10 142 -12 204 -18 219 -21 9 -2 19 -4 23 -4 11 -1 1 -22 -77 -165 -39
-72 -93 -171 -120 -221 -26 -49 -56 -103 -65 -120 -9 -16 -37 -68 -63 -115
-25 -47 -64 -119 -87 -160 -22 -41 -53 -98 -67 -127 -25 -49 -28 -51 -57 -45
-41 8 -632 8 -673 -1 -37 -7 -24 -26 -216 333 -22 41 -43 80 -47 85 -4 6 -32
57 -63 115 -30 58 -93 175 -140 260 -47 85 -84 156 -83 157 8 9 238 31 416 39
74 4 136 8 138 9 6 5 775 -3 842 -9z m-1535 -101 c36 -69 117 -218 309 -570
101 -187 184 -340 183 -341 -1 -1 -20 -5 -42 -8 -348 -54 -652 -158 -853 -292
-35 -24 -69 -44 -73 -44 -5 0 -252 152 -549 338 -297 185 -549 342 -559 348
-21 11 -20 13 84 97 134 109 413 245 685 337 166 55 507 138 644 156 23 3 57
10 76 14 57 13 72 8 95 -35z m2190 26 c163 -29 172 -30 270 -52 472 -104 856
-267 1119 -477 l68 -54 -91 -59 c-51 -33 -94 -59 -96 -59 -2 0 -38 -22 -79
-50 -42 -27 -78 -50 -82 -50 -3 0 -22 -11 -42 -25 -21 -14 -194 -124 -387
-244 l-350 -218 -62 43 c-112 78 -286 157 -459 209 -91 28 -277 70 -349 80
-67 9 -95 16 -95 23 0 4 48 95 106 202 58 107 120 222 138 255 188 349 269
495 275 495 3 0 56 -9 116 -19z m-3691 -823 c108 -68 204 -128 214 -133 9 -6
75 -46 145 -90 70 -44 143 -89 161 -100 144 -87 386 -241 386 -246 0 -4 -18
-33 -39 -65 -123 -185 -105 -391 48 -558 42 -45 51 -45 -124 11 -412 132 -718
313 -951 564 -175 189 -223 394 -137 589 28 65 82 150 93 150 5 0 97 -55 204
-122z m5290 76 c16 -25 42 -78 59 -117 26 -61 30 -85 31 -162 1 -113 -4 -139
-47 -228 -109 -231 -428 -487 -812 -652 -110 -47 -404 -149 -411 -142 -2 2 7
17 21 33 160 182 171 395 32 583 -17 24 -27 46 -22 48 6 2 253 156 550 342
297 186 547 339 555 339 8 1 28 -19 44 -44z m-5202 -1210 c127 -70 277 -139
418 -193 47 -18 98 -38 114 -45 l29 -12 0 -248 c-1 -136 -3 -249 -5 -252 -12
-12 -352 152 -550 265 l-98 56 0 238 c0 130 2 237 5 237 3 0 42 -20 87 -46z
m4961 -176 c-1 -123 -2 -230 -3 -239 0 -25 -332 -208 -530 -292 -36 -15 -73
-32 -82 -38 -10 -5 -22 -9 -28 -9 -6 0 -9 94 -9 255 0 252 1 254 22 260 12 4
31 10 42 15 11 4 52 20 90 35 115 43 162 65 330 151 88 46 162 83 165 83 3 1
4 -99 3 -221z m-3955 -224 c137 -50 301 -99 403 -119 82 -17 265 -45 324 -51
39 -3 77 -8 86 -9 57 -11 329 -20 604 -20 352 0 503 7 715 31 97 12 114 14
172 25 32 5 70 12 85 15 158 28 313 74 621 183 l142 50 0 -263 0 -263 -132
-41 c-73 -23 -173 -50 -223 -61 -87 -20 -103 -23 -190 -39 -81 -14 -173 -4
-377 42 -114 25 -231 49 -260 52 -29 4 -56 8 -60 10 -37 22 -846 22 -963 0
-11 -2 -42 -7 -69 -11 -39 -5 -185 -36 -341 -71 -11 -2 -57 -11 -103 -20 -85
-16 -115 -14 -305 22 -53 10 -263 67 -337 92 l-85 29 -1 254 c0 140 1 257 3
261 2 4 46 -8 98 -27 52 -19 139 -51 193 -71z m-1001 -252 c127 -70 416 -210
521 -251 32 -14 34 -17 34 -86 0 -19 -1 -104 -1 -189 l-1 -154 -27 13 c-16 7
-62 28 -103 45 -111 48 -270 132 -402 213 l-118 72 0 193 c0 105 2 192 5 192
3 0 44 -22 92 -48z m4955 -134 c-1 -95 -1 -180 -2 -189 0 -15 -81 -73 -168
-120 -20 -11 -53 -30 -72 -41 -94 -56 -377 -188 -401 -188 -14 0 -11 396 4
407 6 5 75 37 152 72 77 34 217 101 310 150 94 49 172 87 174 85 2 -2 4 -82 3
-176z m-4177 -224 c167 -62 356 -123 510 -163 l41 -11 0 -190 c0 -129 -3 -190
-11 -190 -23 0 -360 95 -500 140 l-110 36 -1 202 c-1 111 -1 202 0 202 1 0 33
-12 71 -26z m3375 -176 l0 -203 -93 -29 c-50 -16 -110 -35 -132 -42 -88 -28
-369 -103 -388 -104 -4 0 -6 86 -5 191 l3 191 135 37 c134 37 304 94 410 137
30 12 58 23 63 23 4 1 7 -90 7 -201z"/>
</g>
</svg>
