<svg width="24" height="24" viewBox="0 0 24 24" fill="none" xmlns="http://www.w3.org/2000/svg">
<g id="activity">
<path id="Icon" d="M4 14.7778C4 16.0051 5.00736 17 6.25 17C7.49264 17 8.5 16.0051 8.5 14.7778C8.5 13.5505 7.49264 12.5556 6.25 12.5556C5.00736 12.5556 4 13.5505 4 14.7778ZM4 14.7778H1V9L5 5H12L16.7 9H21.3L23 10.7778V14.7778H20.8073M8.72627 14.7778H15.4103M20.2 14.7778C20.2 16.0051 19.1926 17 17.95 17C16.7074 17 15.7 16.0051 15.7 14.7778C15.7 13.5505 16.7074 12.5556 17.95 12.5556C19.1926 12.5556 20.2 13.5505 20.2 14.7778Z" stroke="white" stroke-width="2" stroke-linecap="round" stroke-linejoin="round"/>
</g>
</svg>
